# Blender v2.80 (sub 75) OBJ File: 'sparus.blend'
# www.blender.org
v -0.352932 0.003702 -0.337091
v -0.354000 -0.003656 -0.336189
v -0.361443 0.019302 -0.339384
v -0.354767 0.014694 -0.338954
v -0.353502 0.015653 -0.340737
v -0.350730 0.006418 -0.338628
v -0.349609 0.007607 -0.340374
v -0.363081 0.011228 -0.334719
v -0.361757 0.014225 -0.338050
v -0.349528 0.007008 -0.365914
v -0.362274 0.019830 -0.365957
v -0.355824 0.017393 -0.366030
v -0.351359 0.011250 -0.367683
v -0.360184 0.017984 -0.367929
v -0.351928 -0.013290 -0.366477
v -0.359740 -0.019217 -0.366961
v -0.350202 -0.007778 -0.367556
v -0.356395 -0.015925 -0.367983
v -0.415978 -0.019408 -0.366260
v -0.426218 -0.007081 -0.365960
v -0.415725 -0.017902 -0.367939
v -0.424149 -0.010027 -0.367939
v -0.425881 0.009567 -0.366072
v -0.419439 0.017599 -0.366473
v -0.424160 0.010428 -0.367906
v -0.414605 0.019069 -0.367613
v -0.349917 -0.007662 -0.339320
v -0.354164 -0.014070 -0.338970
v -0.353515 -0.015535 -0.340636
v -0.361175 -0.019297 -0.339410
v -0.354641 -0.003218 -0.333338
v -0.356818 -0.008596 -0.336248
v -0.361616 -0.010858 -0.333876
v -0.362159 -0.013444 -0.337672
v -0.423693 -0.013559 -0.366421
v -0.396759 -0.019617 -0.339738
v -0.416397 -0.017825 -0.338867
v -0.423190 -0.013522 -0.339309
v -0.416248 -0.019313 -0.340574
v -0.426128 -0.007914 -0.340767
v -0.397503 0.019394 -0.339323
v -0.423168 0.012259 -0.338906
v -0.424064 0.013101 -0.340674
v -0.416317 0.019280 -0.340503
v -0.424850 -0.005419 -0.338785
v -0.425647 0.003674 -0.338689
v -0.426174 0.006809 -0.340594
v -0.421059 0.001590 -0.334235
v -0.422811 0.002341 -0.336983
v -0.422166 -0.002832 -0.336928
v -0.415730 0.017977 -0.338874
v -0.399328 -0.014700 -0.338328
v -0.399318 0.013246 -0.337694
v -0.421095 -0.001612 -0.334354
v -0.399175 -0.011180 -0.335226
v -0.355725 0.005474 -0.128105
v -0.357197 0.008145 -0.335630
v -0.354776 0.003200 -0.334057
v -0.398155 -0.011592 -0.125884
v -0.403837 -0.014025 -0.118265
v -0.398831 0.011077 -0.334349
v -0.404364 0.014156 -0.118076
v -0.398229 0.011550 -0.126014
v -0.361652 -0.010837 -0.128483
v -0.355495 -0.005121 -0.128365
v -0.354107 -0.000296 -0.126563
v -0.359362 0.009770 -0.126846
v -0.364995 0.011365 -0.127205
v -0.361429 -0.013048 -0.121477
v -0.356561 -0.009484 -0.122791
v -0.353218 0.004557 -0.122599
v -0.359867 0.012744 -0.121345
v -0.351907 -0.010428 -0.117830
v -0.351356 0.014811 -0.115546
v -0.426280 0.015217 -0.114158
v -0.351277 -0.014840 -0.115611
v -0.421270 0.001240 -0.128425
v -0.420608 -0.001857 -0.128250
v -0.421420 0.003231 -0.123054
v -0.423137 0.000172 -0.122762
v -0.421504 -0.003222 -0.122992
v -0.425878 0.006799 -0.116777
v -0.425562 -0.006289 -0.117189
v -0.426290 -0.015295 -0.114114
v -0.351259 -0.015133 -0.113636
v -0.351259 0.015133 -0.113636
v -0.426290 -0.015295 -0.114114
v -0.426290 -0.015295 -0.114114
v -0.426280 0.015217 -0.114158
v -0.426280 0.015217 -0.114158
v -0.351259 0.015133 -0.113636
v -0.351259 0.015133 -0.113636
v -0.351259 -0.015133 -0.113636
v -0.351259 -0.015133 -0.113636
vn -0.7819 0.5523 0.2890
vn -0.9066 0.2787 -0.3169
vn -0.9440 0.1797 0.2766
vn -0.5231 0.7329 -0.4349
vn -0.3187 0.8902 0.3254
vn -0.1325 0.7308 -0.6695
vn -0.9254 -0.2177 0.3103
vn -0.9297 -0.1251 -0.3462
vn -0.7141 -0.5694 -0.4073
vn -0.6219 -0.4848 0.6149
vn -0.3056 -0.9027 0.3028
vn -0.2931 -0.8953 -0.3354
vn -0.0004 -0.8043 0.5942
vn 0.2399 -0.8166 -0.5250
vn 0.1888 -0.8013 0.5677
vn 0.6735 -0.6684 0.3155
vn 0.7529 -0.5220 -0.4007
vn 0.8373 -0.2412 0.4906
vn 0.7228 -0.1332 -0.6780
vn 0.9434 0.1408 -0.3004
vn 0.9171 0.2365 0.3210
vn 0.6804 0.6598 0.3188
vn 0.5562 0.7515 -0.3547
vn 0.1778 0.7944 0.5807
vn 0.6417 0.3361 -0.6894
vn 0.1384 0.9387 -0.3155
vn -0.0261 0.7855 0.6183
vn -0.1257 0.8981 -0.4214
vn -0.5621 0.6561 -0.5036
vn -0.7973 0.2472 -0.5506
vn -0.1623 0.9649 -0.2063
vn -0.8709 0.4484 -0.2010
vn -0.1444 0.3869 -0.9108
vn -0.1255 -0.8939 -0.4302
vn -0.1438 -0.4096 -0.9008
vn -0.7613 -0.2607 -0.5936
vn -0.5887 -0.6348 -0.5004
vn -0.1573 -0.9665 -0.2029
vn -0.7482 -0.6399 -0.1751
vn -0.0554 -0.4297 0.9012
vn -0.5019 -0.3681 0.7827
vn -0.5466 -0.1619 0.8216
vn -0.1891 -0.8837 0.4281
vn -0.7931 -0.5194 0.3180
vn -0.1327 0.5554 0.8209
vn -0.5293 0.3306 0.7814
vn -0.7785 0.5363 0.3261
vn -0.7095 0.1122 0.6957
vn -0.1905 0.9350 0.2991
vn 0.7680 -0.1808 0.6143
vn 0.6393 0.1215 0.7593
vn 0.9368 0.2452 0.2496
vn 0.6430 0.1701 0.7467
vn 0.9412 -0.2995 0.1563
vn 0.6243 0.6479 0.4364
vn 0.3799 0.3678 0.8488
vn 0.1390 0.4306 0.8918
vn 0.2321 0.8952 0.3804
vn 0.3956 -0.3340 0.8555
vn -0.1531 0.4427 0.8835
vn -0.4494 0.3059 0.8392
vn -0.1966 -0.4710 0.8599
vn -0.1614 -0.4391 -0.8838
vn -0.4975 -0.1800 -0.8486
vn 0.3195 -0.3988 -0.8596
vn 0.1688 0.4870 -0.8569
vn -0.4881 0.2562 -0.8343
vn 0.1475 -0.5283 0.8361
vn 0.3825 -0.8738 0.3002
vn 0.5126 -0.5638 0.6475
vn 0.5571 0.8080 -0.1919
vn 0.8668 0.4820 -0.1273
vn 0.8797 -0.4694 -0.0753
vn 0.3509 -0.9198 -0.1755
vn 0.9818 -0.0367 -0.1863
vn 0.1102 0.9833 -0.1449
vn 0.0031 -0.9892 -0.1466
vn 0.6782 -0.6341 -0.3714
vn 0.0023 0.9861 -0.1660
vn 0.6738 0.6457 -0.3593
vn 0.9999 0.0025 -0.0106
vn 0.9987 0.0000 -0.0506
vn 0.2555 0.8527 -0.4556
vn 0.8046 -0.2414 -0.5426
vn 0.8954 0.2407 -0.3744
vn 0.5943 -0.6468 -0.4779
vn 0.1747 -0.9137 -0.3670
vn -0.9883 0.0001 -0.1520
vn -0.9733 -0.0095 -0.2291
vn -0.8895 0.0094 -0.4568
vn -0.0068 0.0011 1.0000
vn -0.0065 0.0003 1.0000
vn -0.0069 0.0014 1.0000
vn -0.0064 0.0000 1.0000
s 1
f 43//1 23//2 47//3
f 23//2 43//1 24//4
f 44//5 24//4 43//1
f 24//4 44//5 26//6
f 23//2 40//7 47//3
f 20//8 40//7 23//2
f 40//7 20//8 35//9
f 35//9 38//10 40//7
f 35//9 39//11 38//10
f 39//11 35//9 19//12
f 36//13 16//14 30//15
f 16//14 36//13 19//12
f 19//12 36//13 39//11
f 30//15 16//14 29//16
f 29//16 16//14 15//17
f 27//18 15//17 17//19
f 15//17 27//18 29//16
f 27//18 17//19 10//20
f 27//18 10//20 7//21
f 5//22 12//23 3//24
f 13//25 7//21 10//20
f 12//23 5//22 13//25
f 11//26 3//24 12//23
f 13//25 5//22 7//21
f 41//27 11//26 26//6
f 11//26 41//27 3//24
f 41//27 26//6 44//5
f 62//28 79//29 82//30
f 79//29 63//31 77//32
f 63//31 79//29 62//28
f 62//28 82//30 89//33
f 60//34 87//35 83//36
f 81//37 59//38 60//34
f 59//38 81//37 78//39
f 81//37 60//34 83//36
f 52//40 50//41 45//42
f 50//41 55//43 54//44
f 55//43 50//41 52//40
f 53//45 49//46 48//47
f 49//46 53//45 46//48
f 46//48 53//45 41//27
f 53//45 48//47 61//49
f 2//50 1//51 58//52
f 2//50 6//53 1//51
f 31//54 2//50 58//52
f 7//21 6//53 27//18
f 6//53 2//50 27//18
f 58//52 1//51 57//55
f 6//53 57//55 1//51
f 6//53 4//56 9//57
f 9//57 4//56 3//24
f 8//58 57//55 9//57
f 6//53 9//57 57//55
f 6//53 5//22 4//56
f 5//22 6//53 7//21
f 3//24 4//56 5//22
f 27//18 28//59 29//16
f 30//15 29//16 28//59
f 36//13 30//15 52//40
f 51//60 41//27 44//5
f 44//5 42//61 51//60
f 42//61 43//1 47//3
f 42//61 44//5 43//1
f 52//40 37//62 36//13
f 36//13 37//62 39//11
f 37//62 38//10 39//11
f 40//7 38//10 45//42
f 40//7 45//42 46//48
f 46//48 47//3 40//7
f 50//41 46//48 45//42
f 47//3 46//48 42//61
f 19//12 35//9 21//63
f 22//64 21//63 35//9
f 22//64 35//9 20//8
f 16//14 19//12 21//63
f 16//14 21//63 18//65
f 18//65 15//17 16//14
f 15//17 18//65 17//19
f 14//66 26//6 11//26
f 14//66 11//26 12//23
f 12//23 13//25 14//66
f 17//19 13//25 10//20
f 25//67 14//66 13//25
f 14//66 25//67 26//6
f 21//63 17//19 18//65
f 17//19 21//63 22//64
f 22//64 13//25 17//19
f 13//25 22//64 25//67
f 20//8 25//67 22//64
f 25//67 20//8 23//2
f 25//67 23//2 24//4
f 26//6 25//67 24//4
f 3//24 41//27 53//45
f 9//57 53//45 8//58
f 3//24 53//45 9//57
f 61//49 8//58 53//45
f 51//60 46//48 41//27
f 42//61 46//48 51//60
f 49//46 46//48 50//41
f 50//41 54//44 49//46
f 48//47 49//46 54//44
f 45//42 38//10 37//62
f 45//42 37//62 52//40
f 55//43 34//68 33//69
f 34//68 52//40 30//15
f 34//68 55//43 52//40
f 28//59 27//18 34//68
f 28//59 34//68 30//15
f 32//70 27//18 2//50
f 33//69 34//68 32//70
f 2//50 31//54 32//70
f 32//70 31//54 33//69
f 32//70 34//68 27//18
f 8//58 67//71 57//55
f 67//71 56//72 57//55
f 65//73 64//74 33//69
f 66//75 31//54 58//52
f 66//75 58//52 56//72
f 57//55 56//72 58//52
f 8//58 68//76 67//71
f 31//54 66//75 65//73
f 65//73 33//69 31//54
f 64//74 59//38 55//43
f 64//74 55//43 33//69
f 59//38 78//39 55//43
f 55//43 78//39 54//44
f 54//44 77//32 48//47
f 77//32 54//44 78//39
f 77//32 61//49 48//47
f 61//49 77//32 63//31
f 61//49 68//76 8//58
f 63//31 68//76 61//49
f 94//77 87//35 76//78
f 89//33 92//79 74//80
f 76//78 74//80 93//81
f 74//80 86//82 93//81
f 89//33 74//80 62//28
f 62//28 74//80 63//31
f 63//31 74//80 72//83
f 68//76 63//31 72//83
f 73//84 71//85 76//78
f 71//85 73//84 66//75
f 74//80 76//78 71//85
f 74//80 71//85 72//83
f 70//86 73//84 69//87
f 67//71 72//83 71//85
f 67//71 68//76 72//83
f 56//72 67//71 71//85
f 65//73 66//75 70//86
f 64//74 70//86 69//87
f 73//84 76//78 69//87
f 66//75 73//84 70//86
f 71//85 66//75 56//72
f 70//86 64//74 65//73
f 76//78 87//35 60//34
f 59//38 69//87 76//78
f 76//78 60//34 59//38
f 69//87 59//38 64//74
f 90//88 82//30 84//89
f 82//30 83//36 84//89
f 83//36 82//30 80//90
f 81//37 83//36 80//90
f 79//29 80//90 82//30
f 78//39 81//37 80//90
f 77//32 80//90 79//29
f 80//90 77//32 78//39
f 88//91 91//92 75//93
f 88//91 85//94 91//92
