# Blender v2.80 (sub 75) OBJ File: 'sparus.blend'
# www.blender.org
v -0.500000 0.112758 0.000000
v -0.500000 0.110592 -0.021998
v -0.500000 0.104175 -0.043151
v -0.500000 0.093755 -0.062645
v -0.500000 0.079732 -0.079732
v -0.500000 0.062645 -0.093755
v -0.500000 0.000000 -0.000000
v -0.500000 0.043151 -0.104175
v -0.500000 0.021998 -0.110592
v -0.500000 0.000000 -0.112758
v -0.500000 -0.021998 -0.110592
v -0.500000 -0.043151 -0.104175
v -0.500000 -0.062645 -0.093755
v -0.500000 -0.079732 -0.079732
v -0.500000 -0.093755 -0.062645
v -0.500000 -0.104175 -0.043151
v -0.500000 -0.110592 -0.021998
v -0.500000 -0.112758 0.000000
v -0.500000 -0.110592 0.021998
v -0.500000 -0.104175 0.043151
v -0.500000 -0.093755 0.062645
v -0.500000 -0.079732 0.079732
v -0.500000 -0.062645 0.093755
v -0.500000 -0.043151 0.104175
v -0.500000 -0.021998 0.110592
v -0.500000 0.000000 0.112758
v -0.500000 0.021998 0.110592
v -0.500000 0.043151 0.104175
v -0.500000 0.062645 0.093755
v -0.500000 0.079732 0.079732
v -0.500000 0.093755 0.062645
v -0.500000 0.104175 0.043151
v -0.500000 0.110592 0.021998
v -0.555016 0.102976 0.000000
v -0.555016 0.100998 -0.020090
v -0.555016 0.095138 -0.039407
v -0.555016 0.085622 -0.057211
v -0.555016 0.072815 -0.072815
v -0.555016 0.057211 -0.085622
v -0.555016 0.039407 -0.095138
v -0.555016 0.020090 -0.100998
v -0.555016 0.000000 -0.102976
v -0.555016 -0.020090 -0.100998
v -0.555016 -0.039407 -0.095138
v -0.555016 -0.057211 -0.085622
v -0.555016 -0.072815 -0.072815
v -0.555016 -0.085622 -0.057211
v -0.555016 -0.095138 -0.039407
v -0.555016 -0.100998 -0.020090
v -0.555016 -0.102976 0.000000
v -0.555016 -0.100998 0.020090
v -0.555016 -0.095138 0.039407
v -0.555016 -0.085622 0.057211
v -0.555016 -0.072815 0.072815
v -0.555016 -0.057211 0.085622
v -0.555016 -0.039407 0.095138
v -0.555016 -0.020090 0.100998
v -0.555016 0.000000 0.102976
v -0.555016 0.020090 0.100998
v -0.555016 0.039407 0.095138
v -0.555016 0.057211 0.085622
v -0.555016 0.072815 0.072815
v -0.555016 0.085622 0.057211
v -0.555016 0.095138 0.039407
v -0.555016 0.100998 0.020090
v -0.623930 0.078654 0.000000
v -0.623930 0.077143 -0.015345
v -0.623930 0.072667 -0.030099
v -0.623930 0.065398 -0.043698
v -0.623930 0.055617 -0.055617
v -0.623930 0.043698 -0.065398
v -0.623930 0.030100 -0.072667
v -0.623930 0.015345 -0.077142
v -0.623930 0.000000 -0.078654
v -0.623930 -0.015345 -0.077142
v -0.623930 -0.030100 -0.072667
v -0.623930 -0.043698 -0.065398
v -0.623930 -0.055617 -0.055617
v -0.623930 -0.065398 -0.043698
v -0.623930 -0.072667 -0.030099
v -0.623930 -0.077143 -0.015345
v -0.623930 -0.078654 0.000000
v -0.623930 -0.077143 0.015345
v -0.623930 -0.072667 0.030100
v -0.623930 -0.065398 0.043698
v -0.623930 -0.055617 0.055617
v -0.623930 -0.043698 0.065398
v -0.623930 -0.030099 0.072667
v -0.623930 -0.015345 0.077143
v -0.623930 0.000000 0.078654
v -0.623930 0.015345 0.077143
v -0.623930 0.030100 0.072667
v -0.623930 0.043698 0.065398
v -0.623930 0.055617 0.055617
v -0.623930 0.065398 0.043698
v -0.623930 0.072667 0.030099
v -0.623930 0.077143 0.015345
v -0.676643 0.051190 0.000000
v -0.676643 0.050206 -0.009987
v -0.676643 0.047293 -0.019589
v -0.676643 0.042563 -0.028440
v -0.676643 0.036197 -0.036197
v -0.676643 0.028440 -0.042563
v -0.676643 0.019590 -0.047293
v -0.676643 0.009987 -0.050206
v -0.676643 0.000000 -0.051190
v -0.676643 -0.009987 -0.050206
v -0.676643 -0.019589 -0.047293
v -0.676643 -0.028439 -0.042563
v -0.676643 -0.036197 -0.036197
v -0.676643 -0.042563 -0.028440
v -0.676643 -0.047293 -0.019589
v -0.676643 -0.050206 -0.009987
v -0.676643 -0.051190 0.000000
v -0.676643 -0.050206 0.009987
v -0.676643 -0.047293 0.019590
v -0.676643 -0.042563 0.028440
v -0.676643 -0.036197 0.036197
v -0.676643 -0.028439 0.042563
v -0.676643 -0.019589 0.047293
v -0.676643 -0.009987 0.050206
v -0.676643 0.000000 0.051190
v -0.676643 0.009987 0.050206
v -0.676643 0.019590 0.047293
v -0.676643 0.028440 0.042563
v -0.676643 0.036197 0.036197
v -0.676643 0.042563 0.028439
v -0.676643 0.047293 0.019589
v -0.676643 0.050206 0.009987
v -0.706948 0.029014 -0.000000
v -0.706948 0.028457 -0.005660
v -0.706948 0.026806 -0.011103
v -0.706948 0.024125 -0.016120
v -0.706948 0.020516 -0.020516
v -0.706948 0.016120 -0.024125
v -0.706948 0.011103 -0.026806
v -0.706948 0.005660 -0.028457
v -0.706948 0.000000 -0.029014
v -0.706948 -0.005660 -0.028457
v -0.706948 -0.011103 -0.026806
v -0.706948 -0.016120 -0.024125
v -0.706948 -0.020516 -0.020516
v -0.706948 -0.024125 -0.016120
v -0.706948 -0.026806 -0.011103
v -0.706948 -0.028457 -0.005660
v -0.706948 -0.029014 -0.000000
v -0.706948 -0.028457 0.005660
v -0.706948 -0.026806 0.011103
v -0.706948 -0.024125 0.016120
v -0.706948 -0.020516 0.020516
v -0.706948 -0.016120 0.024125
v -0.706948 -0.011103 0.026806
v -0.706948 -0.005660 0.028457
v -0.706948 0.000000 0.029014
v -0.706948 0.005660 0.028457
v -0.706948 0.011103 0.026806
v -0.706948 0.016120 0.024125
v -0.706948 0.020516 0.020516
v -0.706948 0.024125 0.016120
v -0.706948 0.026806 0.011103
v -0.706948 0.028457 0.005660
v -0.722134 0.013753 -0.000000
v -0.722134 0.013489 -0.002683
v -0.722134 0.012706 -0.005263
v -0.722134 0.011435 -0.007641
v -0.722134 0.009725 -0.009725
v -0.722134 0.007641 -0.011435
v -0.722134 0.005263 -0.012706
v -0.722134 0.002683 -0.013489
v -0.722134 0.000000 -0.013753
v -0.722134 -0.002683 -0.013489
v -0.722134 -0.005263 -0.012706
v -0.722134 -0.007641 -0.011435
v -0.722134 -0.009725 -0.009725
v -0.722134 -0.011435 -0.007641
v -0.722134 -0.012706 -0.005263
v -0.722134 -0.013489 -0.002683
v -0.722134 -0.013753 -0.000000
v -0.722134 -0.013489 0.002683
v -0.722134 -0.012706 0.005263
v -0.722134 -0.011435 0.007641
v -0.722134 -0.009725 0.009725
v -0.722134 -0.007641 0.011435
v -0.722134 -0.005263 0.012706
v -0.722134 -0.002683 0.013489
v -0.722134 0.000000 0.013753
v -0.722134 0.002683 0.013489
v -0.722134 0.005263 0.012706
v -0.722134 0.007641 0.011435
v -0.722134 0.009725 0.009725
v -0.722134 0.011435 0.007641
v -0.722134 0.012706 0.005263
v -0.722134 0.013489 0.002683
v -0.731389 0.000000 -0.000000
v -0.500000 0.112758 0.000000
v -0.500000 0.110592 -0.021998
v -0.500000 0.104175 -0.043151
v -0.500000 0.093755 -0.062645
v -0.500000 0.079732 -0.079732
v -0.500000 0.062645 -0.093755
v -0.500000 0.043151 -0.104175
v -0.500000 0.021998 -0.110592
v -0.500000 0.000000 -0.112758
v -0.500000 -0.021998 -0.110592
v -0.500000 -0.043151 -0.104175
v -0.500000 -0.062645 -0.093755
v -0.500000 -0.079732 -0.079732
v -0.500000 -0.093755 -0.062645
v -0.500000 -0.104175 -0.043151
v -0.500000 -0.110592 -0.021998
v -0.500000 -0.112758 0.000000
v -0.500000 -0.110592 0.021998
v -0.500000 -0.104175 0.043151
v -0.500000 -0.093755 0.062645
v -0.500000 -0.079732 0.079732
v -0.500000 -0.062645 0.093755
v -0.500000 -0.043151 0.104175
v -0.500000 -0.021998 0.110592
v -0.500000 0.000000 0.112758
v -0.500000 0.021998 0.110592
v -0.500000 0.043151 0.104175
v -0.500000 0.062645 0.093755
v -0.500000 0.079732 0.079732
v -0.500000 0.093755 0.062645
v -0.500000 0.104175 0.043151
v -0.500000 0.110592 0.021998
vn 1.0000 0.0000 0.0000
vn -0.2535 0.9487 -0.1887
vn -0.1750 0.9846 0.0000
vn -0.1750 0.9656 -0.1921
vn -0.2535 0.8937 -0.3702
vn -0.1750 0.9096 -0.3768
vn -0.2535 0.8043 -0.5374
vn -0.1750 0.8186 -0.5470
vn -0.2535 0.6840 -0.6840
vn -0.1750 0.6962 -0.6962
vn -0.2535 0.5374 -0.8043
vn -0.1750 0.5470 -0.8186
vn -0.2535 0.3702 -0.8937
vn -0.1750 0.3768 -0.9096
vn -0.2535 0.1887 -0.9487
vn -0.1750 0.1921 -0.9656
vn -0.2535 0.0000 -0.9673
vn -0.1750 0.0000 -0.9846
vn -0.2535 -0.1887 -0.9487
vn -0.1750 -0.1921 -0.9656
vn -0.2535 -0.3702 -0.8937
vn -0.1750 -0.3768 -0.9096
vn -0.2535 -0.5374 -0.8043
vn -0.1750 -0.5470 -0.8186
vn -0.2535 -0.6840 -0.6840
vn -0.1750 -0.6962 -0.6962
vn -0.2535 -0.8043 -0.5374
vn -0.1750 -0.8186 -0.5470
vn -0.2535 -0.8937 -0.3702
vn -0.1750 -0.9096 -0.3768
vn -0.2535 -0.9487 -0.1887
vn -0.1750 -0.9656 -0.1921
vn -0.2535 -0.9673 0.0000
vn -0.1750 -0.9846 0.0000
vn -0.2535 -0.9487 0.1887
vn -0.1750 -0.9656 0.1921
vn -0.2535 -0.8937 0.3702
vn -0.1750 -0.9096 0.3768
vn -0.2535 -0.8043 0.5374
vn -0.1750 -0.8186 0.5470
vn -0.2535 -0.6840 0.6840
vn -0.1751 -0.6962 0.6962
vn -0.2535 -0.5374 0.8043
vn -0.1751 -0.5470 0.8186
vn -0.2535 -0.3702 0.8937
vn -0.1750 -0.3768 0.9096
vn -0.2535 -0.1887 0.9487
vn -0.1750 -0.1921 0.9656
vn -0.2535 0.0000 0.9673
vn -0.1750 0.0000 0.9846
vn -0.2535 0.1887 0.9487
vn -0.1750 0.1921 0.9656
vn -0.2535 0.3702 0.8937
vn -0.1750 0.3768 0.9096
vn -0.2535 0.5374 0.8043
vn -0.1750 0.5470 0.8186
vn -0.2535 0.6840 0.6840
vn -0.1750 0.6962 0.6962
vn -0.2535 0.8043 0.5374
vn -0.1750 0.8186 0.5470
vn -0.2535 0.8937 0.3702
vn -0.1750 0.9096 0.3768
vn -0.2535 0.9487 0.1887
vn -0.1750 0.9656 0.1921
vn -0.2535 0.9673 0.0000
vn -0.3968 0.9002 -0.1791
vn -0.3968 0.8480 -0.3512
vn -0.3968 0.7632 -0.5099
vn -0.3968 0.6490 -0.6490
vn -0.3968 0.5099 -0.7632
vn -0.3968 0.3512 -0.8480
vn -0.3968 0.1791 -0.9002
vn -0.3968 0.0000 -0.9179
vn -0.3968 -0.1791 -0.9002
vn -0.3968 -0.3512 -0.8480
vn -0.3968 -0.5099 -0.7632
vn -0.3968 -0.6490 -0.6490
vn -0.3968 -0.7632 -0.5099
vn -0.3968 -0.9002 -0.1791
vn -0.3968 -0.9179 0.0000
vn -0.3968 -0.8480 0.3512
vn -0.3968 -0.6490 0.6490
vn -0.3968 -0.5099 0.7632
vn -0.3968 -0.3512 0.8480
vn -0.3968 0.0000 0.9179
vn -0.3968 0.1791 0.9002
vn -0.3968 0.3512 0.8480
vn -0.3968 0.5099 0.7632
vn -0.3968 0.6490 0.6490
vn -0.3968 0.7632 0.5099
vn -0.3968 0.8480 0.3512
vn -0.3968 0.9002 0.1791
vn -0.3968 0.9179 0.0000
vn -0.5257 0.8343 -0.1659
vn -0.5257 0.7859 -0.3255
vn -0.5257 0.7073 -0.4726
vn -0.5257 0.4726 -0.7073
vn -0.5257 0.3255 -0.7859
vn -0.5257 0.1659 -0.8343
vn -0.5257 0.0000 -0.8506
vn -0.5257 -0.1659 -0.8343
vn -0.5257 -0.3255 -0.7859
vn -0.5257 -0.4726 -0.7073
vn -0.5257 -0.6015 -0.6015
vn -0.5257 -0.7073 -0.4726
vn -0.5257 -0.7859 -0.3255
vn -0.3968 -0.8480 -0.3512
vn -0.5257 -0.8343 -0.1659
vn -0.5257 -0.8506 0.0000
vn -0.5257 -0.8343 0.1659
vn -0.3968 -0.9002 0.1791
vn -0.5257 -0.7859 0.3255
vn -0.5257 -0.7073 0.4726
vn -0.3968 -0.7632 0.5099
vn -0.5257 -0.6015 0.6015
vn -0.5257 -0.4726 0.7073
vn -0.5257 -0.3255 0.7859
vn -0.3968 -0.1791 0.9002
vn -0.5257 0.0000 0.8506
vn -0.5257 0.1659 0.8343
vn -0.5257 0.3255 0.7859
vn -0.5257 0.4726 0.7073
vn -0.5257 0.7073 0.4726
vn -0.5257 0.7859 0.3255
vn -0.5257 0.8343 0.1659
vn -0.6493 0.7605 0.0000
vn -0.5257 0.8506 0.0000
vn -0.6493 0.7459 -0.1484
vn -0.6493 0.7026 -0.2910
vn -0.5257 0.6015 -0.6015
vn -0.6493 0.6323 -0.4225
vn -0.6493 0.4225 -0.6323
vn -0.6493 0.2910 -0.7026
vn -0.6493 0.0000 -0.7605
vn -0.6493 -0.1484 -0.7459
vn -0.6493 -0.2910 -0.7026
vn -0.6493 -0.4225 -0.6323
vn -0.6493 -0.5378 -0.5378
vn -0.6493 -0.6323 -0.4225
vn -0.6493 -0.7026 -0.2910
vn -0.6493 -0.7459 -0.1484
vn -0.6493 -0.7605 0.0000
vn -0.6493 -0.7459 0.1484
vn -0.6493 -0.7026 0.2910
vn -0.6493 -0.6323 0.4225
vn -0.6493 -0.5378 0.5378
vn -0.6493 -0.4225 0.6323
vn -0.6493 -0.2910 0.7026
vn -0.5257 -0.1659 0.8343
vn -0.6493 0.0000 0.7605
vn -0.6493 0.1484 0.7459
vn -0.6493 0.2910 0.7026
vn -0.5257 0.6015 0.6015
vn -0.6493 0.4225 0.6323
vn -0.6493 0.5378 0.5378
vn -0.6493 0.6323 0.4225
vn -0.6493 0.7026 0.2910
vn -0.6493 0.7459 0.1484
vn -0.7698 0.6382 0.0000
vn -0.7698 0.6259 -0.1245
vn -0.7698 0.5896 -0.2442
vn -0.6493 0.5378 -0.5378
vn -0.7698 0.5307 -0.3546
vn -0.7698 0.3546 -0.5307
vn -0.7698 0.1245 -0.6260
vn -0.6493 0.1484 -0.7459
vn -0.7698 0.0000 -0.6382
vn -0.7698 -0.1245 -0.6260
vn -0.7698 -0.2442 -0.5896
vn -0.7698 -0.3546 -0.5307
vn -0.7698 -0.4513 -0.4513
vn -0.7698 -0.5307 -0.3546
vn -0.7698 -0.5896 -0.2442
vn -0.7698 -0.6260 -0.1245
vn -0.7698 -0.6382 0.0000
vn -0.7698 -0.6259 0.1245
vn -0.7698 -0.5896 0.2442
vn -0.7698 -0.5307 0.3546
vn -0.7698 -0.4513 0.4513
vn -0.7698 -0.3546 0.5307
vn -0.7698 -0.2442 0.5896
vn -0.6493 -0.1484 0.7459
vn -0.7698 0.0000 0.6382
vn -0.7698 0.1245 0.6260
vn -0.7698 0.2442 0.5896
vn -0.7698 0.3546 0.5307
vn -0.7698 0.4513 0.4513
vn -0.7698 0.5307 0.3546
vn -0.7698 0.5896 0.2442
vn -0.7698 0.6260 0.1245
vn -1.0000 0.0000 0.0000
vn -0.7698 0.4513 -0.4513
vn -0.7698 0.2442 -0.5896
vn -0.7698 -0.1245 0.6260
s 1
f 225//1 7//1 226//1
f 226//1 7//1 195//1
f 224//1 7//1 225//1
f 223//1 7//1 224//1
f 222//1 7//1 223//1
f 221//1 7//1 222//1
f 220//1 7//1 221//1
f 219//1 7//1 220//1
f 218//1 7//1 219//1
f 217//1 7//1 218//1
f 216//1 7//1 217//1
f 215//1 7//1 216//1
f 214//1 7//1 215//1
f 213//1 7//1 214//1
f 212//1 7//1 213//1
f 211//1 7//1 212//1
f 210//1 7//1 211//1
f 209//1 7//1 210//1
f 208//1 7//1 209//1
f 207//1 7//1 208//1
f 206//1 7//1 207//1
f 205//1 7//1 206//1
f 204//1 7//1 205//1
f 203//1 7//1 204//1
f 202//1 7//1 203//1
f 201//1 7//1 202//1
f 200//1 7//1 201//1
f 199//1 7//1 200//1
f 198//1 7//1 199//1
f 197//1 7//1 198//1
f 196//1 7//1 197//1
f 195//1 7//1 196//1
f 35//2 1//3 2//4
f 36//5 2//4 3//6
f 37//7 3//6 4//8
f 38//9 4//8 5//10
f 39//11 5//10 6//12
f 40//13 6//12 8//14
f 41//15 8//14 9//16
f 42//17 9//16 10//18
f 43//19 10//18 11//20
f 44//21 11//20 12//22
f 45//23 12//22 13//24
f 46//25 13//24 14//26
f 47//27 14//26 15//28
f 48//29 15//28 16//30
f 49//31 16//30 17//32
f 50//33 17//32 18//34
f 51//35 18//34 19//36
f 52//37 19//36 20//38
f 53//39 20//38 21//40
f 54//41 21//40 22//42
f 55//43 22//42 23//44
f 56//45 23//44 24//46
f 57//47 24//46 25//48
f 58//49 25//48 26//50
f 59//51 26//50 27//52
f 60//53 27//52 28//54
f 61//55 28//54 29//56
f 62//57 29//56 30//58
f 63//59 30//58 31//60
f 64//61 31//60 32//62
f 65//63 32//62 33//64
f 34//65 33//64 1//3
f 67//66 34//65 35//2
f 68//67 35//2 36//5
f 69//68 36//5 37//7
f 70//69 37//7 38//9
f 71//70 38//9 39//11
f 72//71 39//11 40//13
f 73//72 40//13 41//15
f 74//73 41//15 42//17
f 75//74 42//17 43//19
f 76//75 43//19 44//21
f 77//76 44//21 45//23
f 78//77 45//23 46//25
f 79//78 46//25 47//27
f 48//29 79//78 47//27
f 81//79 48//29 49//31
f 82//80 49//31 50//33
f 51//35 82//80 50//33
f 84//81 51//35 52//37
f 53//39 84//81 52//37
f 86//82 53//39 54//41
f 55//43 86//82 54//41
f 56//45 87//83 55//43
f 57//47 88//84 56//45
f 90//85 57//47 58//49
f 91//86 58//49 59//51
f 92//87 59//51 60//53
f 93//88 60//53 61//55
f 94//89 61//55 62//57
f 95//90 62//57 63//59
f 96//91 63//59 64//61
f 97//92 64//61 65//63
f 66//93 65//63 34//65
f 99//94 66//93 67//66
f 68//67 99//94 67//66
f 69//68 100//95 68//67
f 70//69 101//96 69//68
f 103//97 70//69 71//70
f 104//98 71//70 72//71
f 105//99 72//71 73//72
f 106//100 73//72 74//73
f 107//101 74//73 75//74
f 108//102 75//74 76//75
f 109//103 76//75 77//76
f 110//104 77//76 78//77
f 111//105 78//77 79//78
f 112//106 79//78 80//107
f 113//108 80//107 81//79
f 114//109 81//79 82//80
f 115//110 82//80 83//111
f 116//112 83//111 84//81
f 117//113 84//81 85//114
f 118//115 85//114 86//82
f 119//116 86//82 87//83
f 120//117 87//83 88//84
f 89//118 120//117 88//84
f 122//119 89//118 90//85
f 123//120 90//85 91//86
f 92//87 123//120 91//86
f 93//88 124//121 92//87
f 94//89 125//122 93//88
f 127//123 94//89 95//90
f 96//91 127//123 95//90
f 97//92 128//124 96//91
f 66//93 129//125 97//92
f 99//94 130//126 98//127
f 100//95 131//128 99//94
f 101//96 132//129 100//95
f 102//130 133//131 101//96
f 135//132 102//130 103//97
f 104//98 135//132 103//97
f 105//99 136//133 104//98
f 138//134 105//99 106//100
f 139//135 106//100 107//101
f 140//136 107//101 108//102
f 141//137 108//102 109//103
f 142//138 109//103 110//104
f 143//139 110//104 111//105
f 144//140 111//105 112//106
f 145//141 112//106 113//108
f 146//142 113//108 114//109
f 147//143 114//109 115//110
f 148//144 115//110 116//112
f 149//145 116//112 117//113
f 150//146 117//113 118//115
f 151//147 118//115 119//116
f 152//148 119//116 120//117
f 121//149 152//148 120//117
f 154//150 121//149 122//119
f 123//120 154//150 122//119
f 124//121 155//151 123//120
f 125//122 156//152 124//121
f 126//153 157//154 125//122
f 127//123 158//155 126//153
f 128//124 159//156 127//123
f 129//125 160//157 128//124
f 98//127 161//158 129//125
f 131//128 162//159 130//126
f 132//129 163//160 131//128
f 133//131 164//161 132//129
f 134//162 165//163 133//131
f 167//164 134//162 135//132
f 136//133 167//164 135//132
f 169//165 136//133 137//166
f 170//167 137//166 138//134
f 171//168 138//134 139//135
f 172//169 139//135 140//136
f 173//170 140//136 141//137
f 174//171 141//137 142//138
f 175//172 142//138 143//139
f 176//173 143//139 144//140
f 177//174 144//140 145//141
f 178//175 145//141 146//142
f 179//176 146//142 147//143
f 180//177 147//143 148//144
f 181//178 148//144 149//145
f 182//179 149//145 150//146
f 183//180 150//146 151//147
f 184//181 151//147 152//148
f 153//182 184//181 152//148
f 186//183 153//182 154//150
f 155//151 186//183 154//150
f 156//152 187//184 155//151
f 157//154 188//185 156//152
f 158//155 189//186 157//154
f 159//156 190//187 158//155
f 160//157 191//188 159//156
f 161//158 192//189 160//157
f 130//126 193//190 161//158
f 163//160 194//191 162//159
f 164//161 194//191 163//160
f 165//163 194//191 164//161
f 166//192 194//191 165//163
f 167//164 194//191 166//192
f 168//193 194//191 167//164
f 169//165 194//191 168//193
f 170//167 194//191 169//165
f 171//168 194//191 170//167
f 172//169 194//191 171//168
f 173//170 194//191 172//169
f 174//171 194//191 173//170
f 175//172 194//191 174//171
f 176//173 194//191 175//172
f 177//174 194//191 176//173
f 178//175 194//191 177//174
f 179//176 194//191 178//175
f 180//177 194//191 179//176
f 181//178 194//191 180//177
f 182//179 194//191 181//178
f 183//180 194//191 182//179
f 184//181 194//191 183//180
f 185//194 194//191 184//181
f 186//183 194//191 185//194
f 187//184 194//191 186//183
f 188//185 194//191 187//184
f 189//186 194//191 188//185
f 190//187 194//191 189//186
f 191//188 194//191 190//187
f 192//189 194//191 191//188
f 193//190 194//191 192//189
f 162//159 194//191 193//190
f 35//2 34//65 1//3
f 36//5 35//2 2//4
f 37//7 36//5 3//6
f 38//9 37//7 4//8
f 39//11 38//9 5//10
f 40//13 39//11 6//12
f 41//15 40//13 8//14
f 42//17 41//15 9//16
f 43//19 42//17 10//18
f 44//21 43//19 11//20
f 45//23 44//21 12//22
f 46//25 45//23 13//24
f 47//27 46//25 14//26
f 48//29 47//27 15//28
f 49//31 48//29 16//30
f 50//33 49//31 17//32
f 51//35 50//33 18//34
f 52//37 51//35 19//36
f 53//39 52//37 20//38
f 54//41 53//39 21//40
f 55//43 54//41 22//42
f 56//45 55//43 23//44
f 57//47 56//45 24//46
f 58//49 57//47 25//48
f 59//51 58//49 26//50
f 60//53 59//51 27//52
f 61//55 60//53 28//54
f 62//57 61//55 29//56
f 63//59 62//57 30//58
f 64//61 63//59 31//60
f 65//63 64//61 32//62
f 34//65 65//63 33//64
f 67//66 66//93 34//65
f 68//67 67//66 35//2
f 69//68 68//67 36//5
f 70//69 69//68 37//7
f 71//70 70//69 38//9
f 72//71 71//70 39//11
f 73//72 72//71 40//13
f 74//73 73//72 41//15
f 75//74 74//73 42//17
f 76//75 75//74 43//19
f 77//76 76//75 44//21
f 78//77 77//76 45//23
f 79//78 78//77 46//25
f 48//29 80//107 79//78
f 81//79 80//107 48//29
f 82//80 81//79 49//31
f 51//35 83//111 82//80
f 84//81 83//111 51//35
f 53//39 85//114 84//81
f 86//82 85//114 53//39
f 55//43 87//83 86//82
f 56//45 88//84 87//83
f 57//47 89//118 88//84
f 90//85 89//118 57//47
f 91//86 90//85 58//49
f 92//87 91//86 59//51
f 93//88 92//87 60//53
f 94//89 93//88 61//55
f 95//90 94//89 62//57
f 96//91 95//90 63//59
f 97//92 96//91 64//61
f 66//93 97//92 65//63
f 99//94 98//127 66//93
f 68//67 100//95 99//94
f 69//68 101//96 100//95
f 70//69 102//130 101//96
f 103//97 102//130 70//69
f 104//98 103//97 71//70
f 105//99 104//98 72//71
f 106//100 105//99 73//72
f 107//101 106//100 74//73
f 108//102 107//101 75//74
f 109//103 108//102 76//75
f 110//104 109//103 77//76
f 111//105 110//104 78//77
f 112//106 111//105 79//78
f 113//108 112//106 80//107
f 114//109 113//108 81//79
f 115//110 114//109 82//80
f 116//112 115//110 83//111
f 117//113 116//112 84//81
f 118//115 117//113 85//114
f 119//116 118//115 86//82
f 120//117 119//116 87//83
f 89//118 121//149 120//117
f 122//119 121//149 89//118
f 123//120 122//119 90//85
f 92//87 124//121 123//120
f 93//88 125//122 124//121
f 94//89 126//153 125//122
f 127//123 126//153 94//89
f 96//91 128//124 127//123
f 97//92 129//125 128//124
f 66//93 98//127 129//125
f 99//94 131//128 130//126
f 100//95 132//129 131//128
f 101//96 133//131 132//129
f 102//130 134//162 133//131
f 135//132 134//162 102//130
f 104//98 136//133 135//132
f 105//99 137//166 136//133
f 138//134 137//166 105//99
f 139//135 138//134 106//100
f 140//136 139//135 107//101
f 141//137 140//136 108//102
f 142//138 141//137 109//103
f 143//139 142//138 110//104
f 144//140 143//139 111//105
f 145//141 144//140 112//106
f 146//142 145//141 113//108
f 147//143 146//142 114//109
f 148//144 147//143 115//110
f 149//145 148//144 116//112
f 150//146 149//145 117//113
f 151//147 150//146 118//115
f 152//148 151//147 119//116
f 121//149 153//182 152//148
f 154//150 153//182 121//149
f 123//120 155//151 154//150
f 124//121 156//152 155//151
f 125//122 157//154 156//152
f 126//153 158//155 157//154
f 127//123 159//156 158//155
f 128//124 160//157 159//156
f 129//125 161//158 160//157
f 98//127 130//126 161//158
f 131//128 163//160 162//159
f 132//129 164//161 163//160
f 133//131 165//163 164//161
f 134//162 166//192 165//163
f 167//164 166//192 134//162
f 136//133 168//193 167//164
f 169//165 168//193 136//133
f 170//167 169//165 137//166
f 171//168 170//167 138//134
f 172//169 171//168 139//135
f 173//170 172//169 140//136
f 174//171 173//170 141//137
f 175//172 174//171 142//138
f 176//173 175//172 143//139
f 177//174 176//173 144//140
f 178//175 177//174 145//141
f 179//176 178//175 146//142
f 180//177 179//176 147//143
f 181//178 180//177 148//144
f 182//179 181//178 149//145
f 183//180 182//179 150//146
f 184//181 183//180 151//147
f 153//182 185//194 184//181
f 186//183 185//194 153//182
f 155//151 187//184 186//183
f 156//152 188//185 187//184
f 157//154 189//186 188//185
f 158//155 190//187 189//186
f 159//156 191//188 190//187
f 160//157 192//189 191//188
f 161//158 193//190 192//189
f 130//126 162//159 193//190
