# Blender v2.76 (sub 0) OBJ File: ''
# www.blender.org
v -0.036181 -0.027021 0.018000
v -0.018193 -0.029380 0.018000
v -0.010634 -0.032880 0.018000
v 0.017560 -0.029763 0.018000
v 0.024172 -0.024696 0.018000
v 0.036879 -0.026061 0.018000
v 0.001717 -0.034514 0.018000
v 0.028678 -0.034751 0.018000
v 0.018907 -0.041008 0.018000
v 0.007461 -0.044434 0.018000
v -0.004130 -0.044968 0.018000
v -0.017824 -0.041491 0.018000
v -0.028029 -0.035277 0.018000
v -0.004159 -0.034248 0.018000
v 0.004130 0.044968 0.018000
v 0.015756 0.042211 0.018000
v 0.024188 0.038013 0.018000
v -0.001717 0.034514 0.018000
v -0.024888 0.037558 0.018000
v -0.016536 0.041912 0.018000
v -0.007461 0.044434 0.018000
v -0.009927 0.033101 0.018000
v -0.032154 0.031563 0.018000
v -0.024696 -0.024172 0.018000
v -0.029763 -0.017560 0.018000
v -0.041912 -0.016536 0.018000
v -0.033775 -0.007783 0.018000
v -0.044434 -0.007461 0.018000
v -0.034470 0.002456 0.018000
v -0.044968 0.004130 0.018000
v -0.032880 0.010634 0.018000
v -0.042211 0.015756 0.018000
v -0.029380 0.018193 0.018000
v -0.024172 0.024696 0.018000
v -0.038013 0.024188 0.018000
v -0.017560 0.029763 0.018000
v 0.009927 -0.033101 0.018000
v 0.042211 -0.015756 0.018000
v 0.029380 -0.018193 0.018000
v 0.032880 -0.010634 0.018000
v 0.044968 -0.004130 0.018000
v 0.034248 -0.004159 0.018000
v 0.034514 0.001717 0.018000
v 0.044434 0.007461 0.018000
v 0.033101 0.009927 0.018000
v 0.041912 0.016536 0.018000
v 0.029763 0.017560 0.018000
v 0.037558 0.024888 0.018000
v 0.024696 0.024172 0.018000
v 0.031563 0.032154 0.018000
v 0.018193 0.029380 0.018000
v 0.010634 0.032880 0.018000
v 0.004159 0.034248 0.018000
v 0.034514 0.001717 0.018000
v 0.034470 0.002456 0.000000
v 0.033101 0.009927 0.018000
v 0.032880 0.010634 0.000000
v 0.029763 0.017560 0.018000
v 0.029380 0.018193 0.000000
v 0.024696 0.024172 0.018000
v 0.024172 0.024696 0.000000
v 0.018193 0.029380 0.018000
v 0.017560 0.029763 0.000000
v 0.010634 0.032880 0.018000
v 0.009927 0.033101 0.000000
v 0.004159 0.034248 0.018000
v 0.001717 0.034514 0.000000
v -0.001717 0.034514 0.018000
v -0.004159 0.034248 0.000000
v -0.009927 0.033101 0.018000
v -0.010634 0.032880 0.000000
v -0.017560 0.029763 0.018000
v -0.018193 0.029380 0.000000
v -0.024172 0.024696 0.018000
v -0.024696 0.024172 0.000000
v -0.029380 0.018193 0.018000
v -0.029763 0.017560 0.000000
v -0.032880 0.010634 0.018000
v -0.033101 0.009927 0.000000
v -0.034470 0.002456 0.018000
v -0.034248 0.004159 0.000000
v -0.034470 -0.002456 -0.000000
v -0.033775 -0.007783 0.018000
v -0.032880 -0.010634 -0.000000
v -0.029763 -0.017560 0.018000
v -0.029380 -0.018193 -0.000000
v -0.024696 -0.024172 0.018000
v -0.024172 -0.024696 -0.000000
v -0.018193 -0.029380 0.018000
v -0.017560 -0.029763 -0.000000
v -0.010634 -0.032880 0.018000
v -0.009927 -0.033101 -0.000000
v -0.004159 -0.034248 0.018000
v -0.001717 -0.034514 -0.000000
v 0.001717 -0.034514 0.018000
v 0.004159 -0.034248 -0.000000
v 0.009927 -0.033101 0.018000
v 0.010634 -0.032880 -0.000000
v 0.017560 -0.029763 0.018000
v 0.018193 -0.029380 -0.000000
v 0.024172 -0.024696 0.018000
v 0.024696 -0.024172 -0.000000
v 0.029380 -0.018193 0.018000
v 0.029763 -0.017560 -0.000000
v 0.032880 -0.010634 0.018000
v 0.033101 -0.009927 -0.000000
v 0.034248 -0.004159 0.018000
v 0.034248 -0.004159 -0.000000
v 0.005310 0.044844 0.024000
v -0.006635 0.044565 0.024000
v 0.016536 0.041912 0.024000
v -0.015756 0.042211 0.024000
v 0.024889 0.037558 0.024000
v -0.024188 0.038013 0.024000
v 0.032153 0.031563 0.024000
v -0.031563 0.032153 0.024000
v 0.038013 0.024188 0.024000
v -0.037558 0.024889 0.024000
v 0.042211 0.015756 0.024000
v -0.041912 0.016536 0.024000
v 0.044968 0.004130 0.024000
v -0.044844 0.005310 0.024000
v 0.044434 -0.007461 0.024000
v -0.044565 -0.006635 0.024000
v 0.041912 -0.016536 0.024000
v -0.042211 -0.015756 0.024000
v 0.037558 -0.024889 0.024000
v -0.038013 -0.024188 0.024000
v 0.031563 -0.032153 0.024000
v -0.032153 -0.031563 0.024000
v 0.024188 -0.038013 0.024000
v -0.024889 -0.037558 0.024000
v 0.015756 -0.042211 0.024000
v -0.016536 -0.041912 0.024000
v 0.004130 -0.044968 0.024000
v -0.007461 -0.044434 0.024000
v 0.044968 -0.004130 0.018000
v 0.044968 0.004130 0.024000
v 0.044434 -0.007461 0.024000
v 0.042211 -0.015756 0.018000
v 0.041912 -0.016536 0.024000
v 0.036879 -0.026061 0.018000
v 0.037558 -0.024889 0.024000
v 0.031563 -0.032153 0.024000
v 0.028678 -0.034751 0.018000
v 0.024188 -0.038013 0.024000
v 0.018907 -0.041008 0.018000
v 0.015756 -0.042211 0.024000
v 0.007461 -0.044434 0.018000
v 0.004130 -0.044968 0.024000
v -0.004130 -0.044968 0.018000
v -0.007461 -0.044434 0.024000
v -0.017824 -0.041491 0.018000
v -0.016536 -0.041912 0.024000
v -0.024889 -0.037558 0.024000
v -0.028029 -0.035277 0.018000
v -0.032153 -0.031563 0.024000
v -0.036181 -0.027021 0.018000
v -0.038013 -0.024188 0.024000
v -0.041912 -0.016536 0.018000
v -0.042211 -0.015756 0.024000
v -0.044434 -0.007461 0.018000
v -0.044565 -0.006635 0.024000
v -0.044968 0.004130 0.018000
v -0.044844 0.005310 0.024000
v -0.042211 0.015756 0.018000
v -0.041912 0.016536 0.024000
v -0.038013 0.024188 0.018000
v -0.037558 0.024889 0.024000
v -0.032154 0.031563 0.018000
v -0.031563 0.032153 0.024000
v -0.024888 0.037558 0.018000
v -0.024188 0.038013 0.024000
v -0.016536 0.041912 0.018000
v -0.015756 0.042211 0.024000
v -0.007461 0.044434 0.018000
v -0.006635 0.044565 0.024000
v 0.004130 0.044968 0.018000
v 0.005310 0.044844 0.024000
v 0.015756 0.042211 0.018000
v 0.016536 0.041912 0.024000
v 0.024188 0.038013 0.018000
v 0.024889 0.037558 0.024000
v 0.031563 0.032154 0.018000
v 0.032153 0.031563 0.024000
v 0.037558 0.024888 0.018000
v 0.038013 0.024188 0.024000
v 0.041912 0.016536 0.018000
v 0.042211 0.015756 0.024000
v 0.044434 0.007461 0.018000
v 0.004159 -0.034248 -0.000000
v -0.001717 -0.034514 -0.000000
v 0.010634 -0.032880 -0.000000
v -0.009927 -0.033101 -0.000000
v 0.018193 -0.029380 -0.000000
v -0.017560 -0.029763 -0.000000
v 0.024696 -0.024172 -0.000000
v -0.024172 -0.024696 -0.000000
v 0.029763 -0.017560 -0.000000
v -0.029380 -0.018193 -0.000000
v 0.033101 -0.009927 -0.000000
v -0.032880 -0.010634 -0.000000
v 0.034248 -0.004159 -0.000000
v -0.034470 -0.002456 -0.000000
v 0.034470 0.002456 0.000000
v -0.034248 0.004159 0.000000
v 0.032880 0.010634 0.000000
v -0.033101 0.009927 0.000000
v 0.029380 0.018193 0.000000
v -0.029763 0.017560 0.000000
v 0.024172 0.024696 0.000000
v -0.024696 0.024172 0.000000
v 0.017560 0.029763 0.000000
v -0.018193 0.029380 0.000000
v 0.009927 0.033101 0.000000
v -0.010634 0.032880 0.000000
v 0.001717 0.034514 0.000000
v -0.004159 0.034248 0.000000
vn 0.000000 0.000000 -1.000000
vn 0.998100 0.061100 0.001800
vn 0.996900 0.079100 -0.002900
vn 0.957900 0.287100 0.003300
vn 0.951400 0.307900 -0.003300
vn 0.861300 0.508000 0.003300
vn 0.850100 0.526600 -0.003300
vn 0.714700 0.699400 0.003300
vn 0.699400 0.714700 -0.003300
vn 0.526600 0.850100 0.003300
vn 0.508000 0.861300 -0.003300
vn 0.315400 0.949000 0.003000
vn 0.288300 0.957500 -0.005200
vn 0.128000 0.991800 0.004300
vn 0.062600 0.998000 -0.006800
vn -0.062600 0.998000 0.006800
vn -0.128000 0.991800 -0.004300
vn -0.288300 0.957500 0.005200
vn -0.315400 0.949000 -0.003000
vn -0.508000 0.861300 0.003300
vn -0.526600 0.850100 -0.003300
vn -0.699400 0.714700 0.003300
vn -0.714700 0.699400 -0.003300
vn -0.850100 0.526600 0.003300
vn -0.861300 0.508000 -0.003300
vn -0.951400 0.307900 0.003300
vn -0.955100 0.296300 0.000800
vn -0.997800 0.066300 0.009000
vn -0.992800 0.119600 -0.000900
vn -0.997100 -0.076300 -0.008200
vn -0.973700 -0.227700 0.011300
vn -0.950000 -0.312200 -0.007500
vn -0.865600 -0.500700 0.006900
vn -0.850100 -0.526600 -0.003300
vn -0.714700 -0.699400 0.003300
vn -0.699400 -0.714700 -0.003300
vn -0.526600 -0.850100 0.003300
vn -0.508000 -0.861300 -0.003300
vn -0.315400 -0.949000 0.003000
vn -0.288300 -0.957500 -0.005200
vn -0.128000 -0.991800 0.004300
vn -0.062600 -0.998000 -0.006800
vn 0.062600 -0.998000 0.006800
vn 0.128000 -0.991800 -0.004300
vn 0.288300 -0.957500 0.005200
vn 0.315400 -0.949000 -0.003000
vn 0.508000 -0.861300 0.003300
vn 0.526600 -0.850100 -0.003300
vn 0.699400 -0.714700 0.003300
vn 0.714700 -0.699400 -0.003300
vn 0.850100 -0.526600 0.003300
vn 0.861300 -0.508000 -0.003300
vn 0.949000 -0.315400 0.003000
vn 0.954500 -0.298200 -0.001800
vn 0.992100 -0.125200 0.001600
vn 0.993300 -0.115800 -0.001500
vn 0.000000 0.000000 1.000000
vn 0.995900 -0.090500 0.002500
vn 0.995900 0.090500 -0.002500
vn 0.984300 -0.176400 0.004500
vn 0.936600 -0.350200 -0.010600
vn 0.927200 -0.374500 -0.001500
vn 0.817900 -0.575300 -0.002300
vn 0.841600 -0.540000 0.010200
vn 0.705000 -0.709200 -0.004900
vn 0.636500 -0.771100 -0.014300
vn 0.539300 -0.842100 -0.002500
vn 0.417700 -0.908600 -0.005000
vn 0.330900 -0.943600 0.007100
vn 0.180100 -0.983600 -0.010100
vn 0.090500 -0.995900 -0.002500
vn -0.095800 -0.995400 -0.000500
vn -0.182900 -0.983100 -0.005500
vn -0.389800 -0.920900 -0.008100
vn -0.353200 -0.935500 0.010200
vn -0.547100 -0.837100 -0.004900
vn -0.621900 -0.782900 -0.014200
vn -0.711600 -0.702600 -0.002400
vn -0.801800 -0.597500 -0.004900
vn -0.852300 -0.523100 0.001600
vn -0.927800 -0.373100 -0.009500
vn -0.937800 -0.347100 0.004100
vn -0.986900 -0.161300 -0.005000
vn -0.990700 -0.136100 0.004200
vn -0.996400 0.085100 -0.003500
vn -0.992300 0.124000 0.003500
vn -0.940700 0.339100 -0.004300
vn -0.931800 0.362900 0.004900
vn -0.845200 0.534500 -0.004000
vn -0.832100 0.554600 0.004000
vn -0.715500 0.698600 -0.003900
vn -0.698500 0.715600 0.004100
vn -0.554700 0.832100 -0.004000
vn -0.534600 0.845100 0.004000
vn -0.369500 0.929200 -0.004000
vn -0.347100 0.937800 0.004100
vn -0.161300 0.986900 -0.005000
vn -0.136100 0.990700 0.004200
vn 0.085100 0.996400 -0.003500
vn 0.124000 0.992300 0.003500
vn 0.339100 0.940700 -0.004300
vn 0.362900 0.931800 0.004900
vn 0.534500 0.845200 -0.004000
vn 0.554600 0.832100 0.004000
vn 0.698600 0.715500 -0.003900
vn 0.715600 0.698500 0.004100
vn 0.832100 0.554700 -0.004000
vn 0.845100 0.534600 0.004000
vn 0.929200 0.369500 -0.004000
vn 0.939100 0.343500 0.009600
vn 0.984300 0.176400 -0.004500
s 1
f 1//1 2//1 3//1
f 4//1 5//1 6//1
f 7//1 8//1 9//1
f 7//1 9//1 10//1
f 7//1 10//1 11//1
f 7//1 11//1 12//1
f 7//1 12//1 13//1
f 13//1 1//1 3//1
f 13//1 3//1 14//1
f 13//1 14//1 7//1
f 15//1 16//1 17//1
f 15//1 17//1 18//1
f 15//1 18//1 19//1
f 15//1 19//1 20//1
f 15//1 20//1 21//1
f 19//1 18//1 22//1
f 19//1 22//1 23//1
f 2//1 1//1 24//1
f 24//1 1//1 25//1
f 25//1 1//1 26//1
f 25//1 26//1 27//1
f 27//1 26//1 28//1
f 27//1 28//1 29//1
f 29//1 28//1 30//1
f 29//1 30//1 31//1
f 31//1 30//1 32//1
f 31//1 32//1 33//1
f 33//1 32//1 34//1
f 34//1 32//1 35//1
f 34//1 35//1 36//1
f 36//1 35//1 23//1
f 36//1 23//1 22//1
f 37//1 6//1 8//1
f 37//1 8//1 7//1
f 4//1 6//1 37//1
f 6//1 5//1 38//1
f 38//1 5//1 39//1
f 38//1 39//1 40//1
f 38//1 40//1 41//1
f 41//1 40//1 42//1
f 41//1 42//1 43//1
f 41//1 43//1 44//1
f 44//1 43//1 45//1
f 44//1 45//1 46//1
f 46//1 45//1 47//1
f 46//1 47//1 48//1
f 48//1 47//1 49//1
f 48//1 49//1 50//1
f 50//1 49//1 51//1
f 50//1 51//1 52//1
f 50//1 52//1 17//1
f 17//1 52//1 53//1
f 17//1 53//1 18//1
f 54//2 55//3 56//4
f 56//4 55//3 57//5
f 56//4 57//5 58//6
f 58//6 57//5 59//7
f 58//6 59//7 60//8
f 60//8 59//7 61//9
f 60//8 61//9 62//10
f 62//10 61//9 63//11
f 62//10 63//11 64//12
f 64//12 63//11 65//13
f 64//12 65//13 66//14
f 66//14 65//13 67//15
f 66//14 67//15 68//16
f 68//16 67//15 69//17
f 68//16 69//17 70//18
f 70//18 69//17 71//19
f 70//18 71//19 72//20
f 72//20 71//19 73//21
f 72//20 73//21 74//22
f 74//22 73//21 75//23
f 74//22 75//23 76//24
f 76//24 75//23 77//25
f 76//24 77//25 78//26
f 78//26 77//25 79//27
f 78//26 79//27 80//28
f 80//28 79//27 81//29
f 80//28 81//29 82//30
f 80//28 82//30 83//31
f 83//31 82//30 84//32
f 83//31 84//32 85//33
f 85//33 84//32 86//34
f 85//33 86//34 87//35
f 87//35 86//34 88//36
f 87//35 88//36 89//37
f 89//37 88//36 90//38
f 89//37 90//38 91//39
f 91//39 90//38 92//40
f 91//39 92//40 93//41
f 93//41 92//40 94//42
f 93//41 94//42 95//43
f 95//43 94//42 96//44
f 95//43 96//44 97//45
f 97//45 96//44 98//46
f 97//45 98//46 99//47
f 99//47 98//46 100//48
f 99//47 100//48 101//49
f 101//49 100//48 102//50
f 101//49 102//50 103//51
f 103//51 102//50 104//52
f 103//51 104//52 105//53
f 105//53 104//52 106//54
f 105//53 106//54 107//55
f 107//55 106//54 108//56
f 107//55 108//56 54//2
f 54//2 108//56 55//3
f 109//57 110//57 111//57
f 111//57 110//57 112//57
f 111//57 112//57 113//57
f 113//57 112//57 114//57
f 113//57 114//57 115//57
f 115//57 114//57 116//57
f 115//57 116//57 117//57
f 117//57 116//57 118//57
f 117//57 118//57 119//57
f 119//57 118//57 120//57
f 119//57 120//57 121//57
f 121//57 120//57 122//57
f 121//57 122//57 123//57
f 123//57 122//57 124//57
f 123//57 124//57 125//57
f 125//57 124//57 126//57
f 125//57 126//57 127//57
f 127//57 126//57 128//57
f 127//57 128//57 129//57
f 129//57 128//57 130//57
f 129//57 130//57 131//57
f 131//57 130//57 132//57
f 131//57 132//57 133//57
f 133//57 132//57 134//57
f 133//57 134//57 135//57
f 135//57 134//57 136//57
f 137//58 138//59 139//60
f 137//58 139//60 140//61
f 140//61 139//60 141//62
f 140//61 141//62 142//63
f 142//63 141//62 143//64
f 142//63 143//64 144//65
f 142//63 144//65 145//66
f 145//66 144//65 146//67
f 145//66 146//67 147//68
f 147//68 146//67 148//69
f 147//68 148//69 149//70
f 149//70 148//69 150//71
f 149//70 150//71 151//72
f 151//72 150//71 152//73
f 151//72 152//73 153//74
f 153//74 152//73 154//75
f 153//74 154//75 155//76
f 153//74 155//76 156//77
f 156//77 155//76 157//78
f 156//77 157//78 158//79
f 158//79 157//78 159//80
f 158//79 159//80 160//81
f 160//81 159//80 161//82
f 160//81 161//82 162//83
f 162//83 161//82 163//84
f 162//83 163//84 164//85
f 164//85 163//84 165//86
f 164//85 165//86 166//87
f 166//87 165//86 167//88
f 166//87 167//88 168//89
f 168//89 167//88 169//90
f 168//89 169//90 170//91
f 170//91 169//90 171//92
f 170//91 171//92 172//93
f 172//93 171//92 173//94
f 172//93 173//94 174//95
f 174//95 173//94 175//96
f 174//95 175//96 176//97
f 176//97 175//96 177//98
f 176//97 177//98 178//99
f 178//99 177//98 179//100
f 178//99 179//100 180//101
f 180//101 179//100 181//102
f 180//101 181//102 182//103
f 182//103 181//102 183//104
f 182//103 183//104 184//105
f 184//105 183//104 185//106
f 184//105 185//106 186//107
f 186//107 185//106 187//108
f 186//107 187//108 188//109
f 188//109 187//108 189//110
f 188//109 189//110 190//111
f 190//111 189//110 138//59
f 190//111 138//59 137//58
f 191//1 192//1 193//1
f 193//1 192//1 194//1
f 193//1 194//1 195//1
f 195//1 194//1 196//1
f 195//1 196//1 197//1
f 197//1 196//1 198//1
f 197//1 198//1 199//1
f 199//1 198//1 200//1
f 199//1 200//1 201//1
f 201//1 200//1 202//1
f 201//1 202//1 203//1
f 203//1 202//1 204//1
f 203//1 204//1 205//1
f 205//1 204//1 206//1
f 205//1 206//1 207//1
f 207//1 206//1 208//1
f 207//1 208//1 209//1
f 209//1 208//1 210//1
f 209//1 210//1 211//1
f 211//1 210//1 212//1
f 211//1 212//1 213//1
f 213//1 212//1 214//1
f 213//1 214//1 215//1
f 215//1 214//1 216//1
f 215//1 216//1 217//1
f 217//1 216//1 218//1
