# Blender v2.76 (sub 0) OBJ File: 'arm.blend'
# www.blender.org
v -0.037588 -0.020000 0.075013
v -0.029643 -0.030628 0.075007
v -0.019357 -0.020000 0.074997
v -0.037717 -0.020000 0.056928
v -0.035635 -0.023588 0.024000
v -0.018098 -0.038713 0.075019
v -0.009350 -0.020000 0.074999
v -0.037447 -0.020000 0.040000
v -0.040044 -0.014019 0.040000
v -0.041299 -0.010543 0.024000
v -0.027589 -0.032386 0.024000
v -0.004374 -0.042399 0.075008
v -0.002063 -0.020000 0.074992
v -0.041673 -0.008627 0.040000
v -0.017226 -0.039109 0.024000
v 0.005897 -0.042135 0.074979
v 0.002799 -0.020000 0.074978
v -0.042451 -0.001393 0.040000
v -0.042596 0.001520 0.024000
v -0.005700 -0.042160 0.024000
v 0.004558 -0.042379 0.024000
v 0.015563 -0.039681 0.075005
v 0.007844 -0.020000 0.074992
v -0.042311 0.004308 0.040000
v 0.027668 -0.032568 0.075003
v 0.016991 -0.020000 0.074993
v -0.041305 0.010379 0.040000
v -0.040920 0.011642 0.024000
v 0.018276 -0.038629 0.024000
v 0.036759 -0.021577 0.075006
v 0.034073 -0.020000 0.075004
v -0.038510 0.016961 0.040000
v -0.036260 0.022616 0.024000
v 0.031324 -0.029070 0.024000
v 0.037376 -0.020000 0.075006
v -0.037321 0.020000 0.040000
v -0.037376 0.020000 0.075011
v -0.036759 0.021577 0.075011
v 0.039884 -0.015345 0.024000
v 0.038634 -0.017839 0.040000
v 0.037286 -0.020000 0.040000
v 0.037550 -0.020000 0.053861
v -0.030667 0.029490 0.074991
v -0.034073 0.020000 0.075009
v 0.040684 -0.012600 0.040000
v -0.028130 0.031917 0.024000
v -0.020798 0.020000 0.074989
v 0.042596 -0.001520 0.024000
v 0.042311 -0.004308 0.040000
v -0.024644 0.034684 0.074964
v -0.014211 0.020000 0.074972
v 0.042451 0.001393 0.040000
v -0.018276 0.038629 0.024000
v -0.007844 0.020000 0.074998
v -0.015563 0.039681 0.075011
v 0.041299 0.010543 0.024000
v 0.041673 0.008627 0.040000
v -0.002799 0.020000 0.074984
v -0.005897 0.042135 0.074985
v 0.040044 0.014019 0.040000
v -0.006409 0.042058 0.024000
v 0.002063 0.020000 0.074998
v 0.004374 0.042399 0.075014
v 0.035635 0.023588 0.024000
v 0.037717 0.020000 0.056928
v 0.037447 0.020000 0.040000
v 0.009350 0.020000 0.075005
v 0.018098 0.038713 0.075025
v 0.003545 0.042475 0.024000
v 0.029643 0.030628 0.075013
v 0.037588 0.020000 0.075019
v 0.019356 0.020000 0.075003
v 0.017226 0.039109 0.024000
v 0.027588 0.032386 0.024000
v 0.041137 -0.018812 0.024000
v 0.044879 -0.004684 0.024000
v 0.042596 -0.001520 0.024000
v 0.039884 -0.015345 0.024000
v 0.041616 0.017727 0.024000
v 0.031563 -0.032402 0.024000
v 0.044661 0.005858 0.024000
v 0.041299 0.010543 0.024000
v 0.031324 -0.029070 0.024000
v 0.035635 0.023588 0.024000
v 0.017727 -0.041616 0.024000
v 0.032402 0.031563 0.024000
v 0.018276 -0.038629 0.024000
v 0.027588 0.032386 0.024000
v 0.005858 -0.044661 0.024000
v 0.017226 0.039109 0.024000
v 0.004558 -0.042379 0.024000
v 0.018812 0.041137 0.024000
v -0.004684 -0.044879 0.024000
v 0.003545 0.042475 0.024000
v -0.005700 -0.042160 0.024000
v 0.004684 0.044879 0.024000
v -0.018812 -0.041137 0.024000
v -0.006409 0.042058 0.024000
v -0.017226 -0.039109 0.024000
v -0.005858 0.044661 0.024000
v -0.032402 -0.031563 0.024000
v -0.018276 0.038629 0.024000
v -0.027589 -0.032386 0.024000
v -0.017727 0.041616 0.024000
v -0.035635 -0.023588 0.024000
v -0.028130 0.031917 0.024000
v -0.041616 -0.017727 0.024000
v -0.031563 0.032402 0.024000
v -0.041299 -0.010543 0.024000
v -0.036260 0.022616 0.024000
v -0.042596 0.001520 0.024000
v -0.039171 0.022239 0.024000
v -0.044879 0.004684 0.024000
v -0.040920 0.011642 0.024000
v -0.042590 0.014663 0.024000
v -0.044661 -0.005858 0.024000
v 0.033409 -0.009487 0.018000
v 0.032402 -0.031563 0.018000
v 0.026662 -0.022256 0.018000
v 0.034476 0.003166 0.018000
v 0.018812 -0.041137 0.018000
v 0.041616 -0.017727 0.018000
v 0.015305 -0.031176 0.018000
v 0.044975 -0.003643 0.018000
v 0.003166 -0.034476 0.018000
v 0.044559 0.006588 0.018000
v 0.006588 -0.044559 0.018000
v 0.041137 0.018812 0.018000
v -0.003643 -0.044975 0.018000
v 0.031563 0.032402 0.018000
v -0.009487 -0.033409 0.018000
v 0.031176 0.015305 0.018000
v -0.017727 -0.041616 0.018000
v 0.017727 0.041616 0.018000
v -0.022256 -0.026662 0.018000
v 0.022256 0.026662 0.018000
v -0.031563 -0.032402 0.018000
v 0.009487 0.033409 0.018000
v -0.031176 -0.015305 0.018000
v 0.003643 0.044975 0.018000
v -0.034476 -0.003166 0.018000
v -0.003166 0.034476 0.018000
v -0.044975 0.003643 0.018000
v -0.006588 0.044559 0.018000
v -0.041137 -0.018812 0.018000
v -0.033409 0.009487 0.018000
v -0.018812 0.041137 0.018000
v -0.044559 -0.006588 0.018000
v -0.032402 0.031563 0.018000
v -0.015305 0.031176 0.018000
v -0.041616 0.017727 0.018000
v -0.026662 0.022256 0.018000
v -0.003166 0.034476 0.018000
v 0.001301 0.034706 -0.000000
v -0.011130 0.032783 0.000000
v -0.015305 0.031176 0.018000
v 0.009487 0.033409 0.018000
v -0.022256 0.026662 0.000000
v 0.015305 0.031176 -0.000000
v -0.026662 0.022256 0.018000
v 0.022256 0.026662 0.018000
v -0.031176 0.015305 0.000000
v 0.026662 0.022256 -0.000000
v -0.033409 0.009487 0.018000
v 0.031176 0.015305 0.018000
v -0.034706 0.001301 0.000000
v 0.032783 0.011130 -0.000000
v -0.034476 -0.003166 0.018000
v 0.034476 0.003166 0.018000
v -0.032783 -0.011130 0.000000
v 0.034706 -0.001301 -0.000000
v -0.031176 -0.015305 0.018000
v 0.033409 -0.009487 0.018000
v -0.026662 -0.022256 0.000000
v 0.031176 -0.015305 -0.000000
v -0.022256 -0.026662 0.018000
v 0.026662 -0.022256 0.018000
v -0.018544 -0.029143 0.000000
v 0.024651 -0.024198 -0.000000
v -0.009487 -0.033409 0.018000
v 0.016226 -0.030707 -0.000000
v -0.010265 -0.033064 0.000000
v 0.015305 -0.031176 0.018000
v 0.002333 -0.034652 -0.000000
v 0.003166 -0.034476 0.018000
v 0.003643 0.044975 0.018000
v 0.004684 0.044879 0.024000
v 0.017727 0.041616 0.018000
v -0.005858 0.044661 0.024000
v 0.018812 0.041137 0.024000
v -0.006588 0.044559 0.018000
v 0.031563 0.032402 0.018000
v -0.017727 0.041616 0.024000
v 0.032402 0.031563 0.024000
v -0.018812 0.041137 0.018000
v 0.041137 0.018812 0.018000
v -0.031563 0.032402 0.024000
v 0.041616 0.017727 0.024000
v -0.032402 0.031563 0.018000
v 0.044559 0.006588 0.018000
v -0.039171 0.022239 0.024000
v 0.044661 0.005858 0.024000
v -0.041616 0.017727 0.018000
v 0.044975 -0.003643 0.018000
v -0.042590 0.014663 0.024000
v 0.044879 -0.004684 0.024000
v -0.044879 0.004684 0.024000
v 0.041616 -0.017727 0.018000
v -0.044975 0.003643 0.018000
v 0.041137 -0.018812 0.024000
v -0.044661 -0.005858 0.024000
v 0.032402 -0.031563 0.018000
v -0.044559 -0.006588 0.018000
v 0.031563 -0.032402 0.024000
v -0.041616 -0.017727 0.024000
v 0.018812 -0.041137 0.018000
v -0.041137 -0.018812 0.018000
v 0.017727 -0.041616 0.024000
v -0.032402 -0.031563 0.024000
v 0.006588 -0.044559 0.018000
v -0.031563 -0.032402 0.018000
v 0.005858 -0.044661 0.024000
v -0.018812 -0.041137 0.024000
v -0.003643 -0.044975 0.018000
v -0.017727 -0.041616 0.018000
v -0.004684 -0.044879 0.024000
v 0.032783 0.011130 -0.000000
v 0.034706 -0.001301 -0.000000
v 0.031176 -0.015305 -0.000000
v 0.026662 0.022256 -0.000000
v 0.024651 -0.024198 -0.000000
v 0.015305 0.031176 -0.000000
v 0.016226 -0.030707 -0.000000
v 0.001301 0.034706 -0.000000
v 0.002333 -0.034652 -0.000000
v -0.011130 0.032783 0.000000
v -0.010265 -0.033064 0.000000
v -0.022256 0.026662 0.000000
v -0.018544 -0.029143 0.000000
v -0.026662 -0.022256 0.000000
v -0.031176 0.015305 0.000000
v -0.032783 -0.011130 0.000000
v -0.034706 0.001301 0.000000
v -0.019357 -0.020000 0.074997
v -0.037588 -0.020000 0.075013
v -0.037588 -0.020000 0.075013
v -0.029643 -0.030628 0.075007
v -0.037717 -0.020000 0.056928
v -0.018098 -0.038713 0.075019
v -0.009350 -0.020000 0.074999
v -0.037447 -0.020000 0.040000
v -0.037447 -0.020000 0.040000
v -0.040044 -0.014019 0.040000
v -0.004374 -0.042399 0.075008
v -0.002063 -0.020000 0.074992
v -0.041673 -0.008627 0.040000
v 0.005897 -0.042135 0.074979
v 0.002799 -0.020000 0.074978
v -0.042451 -0.001393 0.040000
v 0.007844 -0.020000 0.074992
v -0.042311 0.004308 0.040000
v 0.015563 -0.039681 0.075005
v 0.027668 -0.032568 0.075003
v 0.016991 -0.020000 0.074993
v -0.041305 0.010379 0.040000
v 0.036759 -0.021577 0.075006
v 0.034073 -0.020000 0.075004
v -0.038510 0.016961 0.040000
v 0.037376 -0.020000 0.075006
v 0.037376 -0.020000 0.075006
v -0.037321 0.020000 0.040000
v -0.037321 0.020000 0.040000
v -0.037376 0.020000 0.075011
v -0.037376 0.020000 0.075011
v -0.036759 0.021577 0.075011
v 0.038634 -0.017839 0.040000
v 0.037286 -0.020000 0.040000
v 0.037286 -0.020000 0.040000
v 0.037550 -0.020000 0.053861
v -0.030667 0.029490 0.074991
v -0.034073 0.020000 0.075009
v 0.040684 -0.012600 0.040000
v -0.020798 0.020000 0.074989
v 0.042311 -0.004308 0.040000
v -0.024644 0.034684 0.074964
v -0.014211 0.020000 0.074972
v 0.042451 0.001393 0.040000
v -0.015563 0.039681 0.075011
v -0.007844 0.020000 0.074998
v 0.041673 0.008627 0.040000
v -0.005897 0.042135 0.074985
v -0.002799 0.020000 0.074984
v 0.040044 0.014019 0.040000
v 0.004374 0.042399 0.075014
v 0.002063 0.020000 0.074998
v 0.037717 0.020000 0.056928
v 0.037447 0.020000 0.040000
v 0.037447 0.020000 0.040000
v 0.018098 0.038713 0.075025
v 0.009350 0.020000 0.075005
v 0.029643 0.030628 0.075013
v 0.037588 0.020000 0.075019
v 0.037588 0.020000 0.075019
v 0.019356 0.020000 0.075003
vn 0.000900 0.000100 1.000000
vn 0.000300 0.000600 1.000000
vn 0.000000 0.000900 1.000000
vn -0.810700 -0.585400 0.010700
vn -0.837600 -0.546200 -0.008400
vn -0.695700 -0.718300 0.005700
vn 0.000400 0.000900 1.000000
vn -0.917200 -0.398200 -0.014600
vn -0.967100 -0.254300 -0.009800
vn -0.645400 -0.763800 -0.003900
vn -0.422300 -0.906400 0.003500
vn 0.000500 0.000800 1.000000
vn 0.001900 0.000500 1.000000
vn -0.981400 -0.191800 0.000000
vn -0.935900 -0.352100 -0.003100
vn -0.403700 -0.914900 -0.000200
vn -0.118500 -0.992900 0.003000
vn 0.000100 0.000000 1.000000
vn 0.000300 0.000000 1.000000
vn -0.998800 -0.048800 0.000200
vn -0.999500 0.028300 -0.008000
vn -0.141500 -0.989900 -0.000900
vn 0.121900 -0.992500 -0.004200
vn 0.138600 -0.990300 0.001100
vn -0.001400 0.000100 1.000000
vn -0.001700 0.000000 1.000000
vn -0.994800 0.101800 0.000000
vn 0.377000 -0.926200 0.003100
vn -0.000400 0.000400 1.000000
vn -0.000300 0.000500 1.000000
vn -0.958500 0.285000 -0.000600
vn 0.432600 -0.901500 -0.007700
vn 0.647700 -0.761800 0.008100
vn -0.000600 0.000200 1.000000
vn -0.924600 0.380700 0.004500
vn -0.849700 0.527300 0.000700
vn 0.732300 -0.680800 -0.012000
vn 0.862300 -0.506300 0.008000
vn -0.000700 0.000100 1.000000
vn -0.930500 0.366200 -0.001800
vn -0.871500 0.490400 0.001600
vn 0.842300 -0.538900 -0.009600
vn 0.931200 -0.364500 0.007600
vn -0.726300 0.687300 0.003300
vn 0.001400 0.001100 1.000000
vn 0.001100 0.000600 1.000000
vn 0.000700 -0.000000 1.000000
vn 0.930200 -0.366800 -0.012700
vn 0.962900 -0.269900 -0.001800
vn 0.889000 -0.457800 -0.001800
vn -0.663400 0.748300 -0.005800
vn 0.002000 0.001900 1.000000
vn 0.999100 -0.041400 -0.010300
vn -0.571700 0.820500 0.004700
vn 0.002200 0.002100 1.000000
vn 0.993000 -0.118100 -0.002900
vn 0.998800 0.048800 0.000200
vn -0.425200 0.905000 -0.004900
vn -0.000600 -0.000900 1.000000
vn -0.002000 -0.000800 1.000000
vn 0.967100 0.254300 -0.009800
vn -0.365000 0.931000 0.003700
vn -0.000100 0.000000 1.000000
vn 0.000100 -0.000600 1.000000
vn 0.981400 0.191800 0.000000
vn 0.935900 0.352100 -0.003100
vn -0.159600 0.987200 -0.002700
vn -0.001900 -0.000500 1.000000
vn -0.000300 -0.000000 1.000000
vn -0.137000 0.990600 0.001300
vn 0.837600 0.546200 -0.008400
vn 0.917200 0.398200 -0.014600
vn -0.000500 -0.000800 1.000000
vn -0.000400 -0.000900 1.000000
vn 0.099100 0.995100 -0.001600
vn 0.117900 0.993000 0.002000
vn 0.810700 0.585400 0.010700
vn 0.695700 0.718300 0.005700
vn -0.000000 -0.000900 1.000000
vn -0.000300 -0.000600 1.000000
vn 0.397000 0.917800 -0.002100
vn 0.422300 0.906400 0.003500
vn 0.645400 0.763800 -0.003900
vn -0.000900 -0.000100 1.000000
vn 0.000000 1.000000 0.000000
vn 0.000000 0.000000 1.000000
vn 0.000000 -1.000000 0.000000
vn -0.000000 -0.000100 1.000000
vn 0.000100 0.000100 1.000000
vn -0.000000 0.000100 1.000000
vn 0.005800 -0.000900 1.000000
vn 0.000000 0.000000 -1.000000
vn -0.093800 0.995400 0.018300
vn 0.042700 0.998900 -0.018800
vn -0.319200 0.947500 -0.018300
vn -0.445300 0.895200 0.018800
vn 0.278300 0.960300 0.018800
vn -0.644800 0.764100 -0.018800
vn 0.441200 0.897200 -0.021600
vn -0.767900 0.640100 0.021600
vn 0.640100 0.767900 0.021600
vn -0.897200 0.441200 -0.021600
vn 0.764100 0.644900 -0.018800
vn -0.960300 0.278300 0.018800
vn 0.895200 0.445300 0.018800
vn -0.998900 0.042700 -0.018800
vn 0.947500 0.319200 -0.018300
vn -0.995400 -0.093800 0.018300
vn 0.995400 0.093800 0.018300
vn -0.947500 -0.319200 -0.018300
vn 0.998900 -0.042700 -0.018800
vn -0.895200 -0.445300 0.018800
vn 0.960300 -0.278300 0.018800
vn -0.773600 -0.633400 -0.013500
vn 0.902400 -0.430500 -0.016100
vn -0.637100 -0.770400 0.022300
vn 0.762400 -0.646900 0.016400
vn -0.533900 -0.845500 -0.005500
vn 0.706200 -0.708000 -0.002500
vn -0.277300 -0.960700 0.010600
vn 0.458100 -0.888900 0.002200
vn -0.284500 -0.958600 -0.006100
vn 0.444700 -0.895700 0.002100
vn 0.075700 -0.997100 -0.005400
vn 0.095700 -0.995400 0.005300
vn 0.089100 0.996000 -0.005800
vn 0.123700 0.992300 0.002500
vn 0.389000 0.921200 -0.004900
vn -0.133700 0.991000 0.005600
vn 0.431900 0.901900 0.002600
vn -0.156700 0.987600 -0.004500
vn 0.689700 0.724100 -0.003900
vn -0.396200 0.918100 0.005500
vn 0.724100 0.689700 0.003900
vn -0.437500 0.899200 -0.001300
vn 0.899200 0.437500 -0.001400
vn -0.680500 0.732700 0.001300
vn 0.918100 0.396300 0.005500
vn -0.716500 0.697400 -0.015400
vn 0.987600 0.156700 -0.004500
vn -0.851800 0.523300 -0.023000
vn 0.991000 0.133700 0.005600
vn -0.920300 0.391100 -0.010500
vn 0.996000 -0.089100 -0.005800
vn -0.957200 0.289400 -0.007600
vn 0.992300 -0.123700 0.002500
vn -0.992800 0.119200 -0.007500
vn 0.921200 -0.389000 -0.005000
vn -0.996000 0.089100 -0.005800
vn 0.901900 -0.431900 0.002600
vn -0.991000 -0.133700 0.005600
vn 0.724100 -0.689700 -0.003900
vn -0.987600 -0.156700 -0.004500
vn 0.689700 -0.724100 0.003900
vn -0.918100 -0.396300 0.005500
vn 0.437500 -0.899200 -0.001300
vn -0.899200 -0.437500 -0.001400
vn 0.396200 -0.918100 0.005500
vn -0.724100 -0.689700 0.003900
vn 0.156700 -0.987600 -0.004500
vn -0.689700 -0.724100 -0.003900
vn 0.133700 -0.991000 0.005600
vn -0.431900 -0.901900 0.002600
vn -0.089100 -0.996000 -0.005800
vn -0.389000 -0.921200 -0.004900
vn -0.123700 -0.992300 0.002500
vn -0.800900 -0.598700 0.005700
vn -0.962000 0.273100 -0.001600
vn -0.931200 0.364500 -0.001500
vn 0.848400 -0.529100 -0.016100
vn 0.800900 0.598700 0.005700
s 1
f 245//1 2//2 244//3
f 248//4 5//5 247//6
f 244//3 2//2 249//7
f 5//5 251//8 10//9
f 11//10 247//6 5//5
f 11//10 6//11 247//6
f 250//12 249//7 254//13
f 256//14 10//9 9//15
f 15//16 6//11 11//10
f 15//16 12//17 6//11
f 254//13 257//18 258//19
f 259//20 19//21 10//9
f 20//22 12//17 15//16
f 21//23 16//24 12//17
f 257//18 262//25 260//26
f 261//27 19//21 259//20
f 21//23 12//17 20//22
f 21//23 22//28 16//24
f 262//25 263//29 264//30
f 28//31 19//21 261//27
f 29//32 22//28 21//23
f 29//32 25//33 22//28
f 263//29 266//34 267//34
f 268//35 33//36 28//31
f 34//37 25//33 29//32
f 34//37 30//38 25//33
f 267//34 266//34 269//39
f 33//36 271//40 38//41
f 42//42 30//38 34//37
f 270//43 30//38 42//42
f 33//36 38//41 280//44
f 281//45 275//46 274//47
f 39//48 282//49 276//50
f 33//36 280//44 46//51
f 43//52 275//46 281//45
f 282//49 39//48 48//53
f 46//51 280//44 285//54
f 50//39 43//52 283//55
f 284//56 48//53 287//57
f 46//51 285//54 53//58
f 288//59 50//39 286//60
f 287//57 48//53 56//61
f 53//58 285//54 55//62
f 291//63 288//59 289//64
f 290//65 56//61 293//66
f 53//58 55//62 61//67
f 294//68 291//63 292//69
f 61//67 55//62 59//70
f 64//71 297//72 56//61
f 300//73 299//74 294//68
f 69//75 59//70 63//76
f 61//67 59//70 69//75
f 296//77 64//71 301//78
f 304//79 70//80 299//74
f 73//81 63//76 68//82
f 69//75 63//76 73//81
f 74//83 301//78 64//71
f 302//84 70//80 304//79
f 74//83 68//82 301//78
f 73//81 68//82 74//83
f 26//85 279//85 278//85
f 32//86 253//86 252//86
f 54//87 51//87 36//87
f 75//86 76//86 77//86
f 78//86 75//86 77//86
f 76//86 79//86 77//86
f 78//86 80//86 75//86
f 81//86 79//86 76//86
f 82//86 77//86 79//86
f 83//86 80//86 78//86
f 79//86 84//86 82//86
f 83//86 85//86 80//86
f 86//86 84//86 79//86
f 87//86 85//86 83//86
f 86//86 88//88 84//86
f 87//86 89//86 85//86
f 86//86 90//86 88//88
f 91//86 89//86 87//86
f 92//86 90//86 86//86
f 91//86 93//86 89//86
f 92//86 94//86 90//86
f 95//86 93//86 91//86
f 96//86 94//86 92//86
f 95//86 97//86 93//86
f 96//86 98//86 94//86
f 99//86 97//86 95//86
f 100//86 98//86 96//86
f 99//86 101//86 97//86
f 100//86 102//86 98//86
f 103//89 101//86 99//86
f 104//86 102//86 100//86
f 105//86 101//86 103//89
f 104//86 106//90 102//86
f 105//86 107//86 101//86
f 108//86 106//90 104//86
f 109//86 107//86 105//86
f 108//86 110//86 106//90
f 111//86 107//86 109//86
f 112//86 110//86 108//86
f 111//86 113//86 107//86
f 112//86 114//91 110//86
f 115//86 113//86 111//86
f 107//86 113//86 116//86
f 112//86 111//86 114//91
f 115//86 111//86 112//86
f 117//92 118//92 119//92
f 118//92 117//92 120//92
f 119//92 118//92 121//92
f 120//92 122//92 118//92
f 119//92 121//92 123//92
f 120//92 124//92 122//92
f 123//92 121//92 125//92
f 120//92 126//92 124//92
f 125//92 121//92 127//92
f 120//92 128//92 126//92
f 125//92 127//92 129//92
f 120//92 130//92 128//92
f 125//92 129//92 131//92
f 132//92 130//92 120//92
f 131//92 129//92 133//92
f 130//92 132//92 134//92
f 131//92 133//92 135//92
f 134//92 132//92 136//92
f 135//92 133//92 137//92
f 134//92 136//92 138//92
f 135//92 137//92 139//92
f 134//92 138//92 140//92
f 139//92 137//92 141//92
f 140//92 138//92 142//92
f 143//92 141//92 137//92
f 140//92 142//92 144//92
f 143//92 137//92 145//92
f 143//92 146//92 141//92
f 144//92 142//92 147//92
f 143//92 145//92 148//92
f 143//92 149//92 146//92
f 147//92 142//92 150//92
f 143//92 151//92 149//92
f 149//92 152//92 146//92
f 147//92 150//92 152//92
f 147//92 152//92 149//92
f 153//93 154//94 155//95
f 153//93 155//95 156//96
f 157//97 154//94 153//93
f 156//96 155//95 158//98
f 157//97 159//99 154//94
f 156//96 158//98 160//100
f 161//101 159//99 157//97
f 160//100 158//98 162//102
f 161//101 163//103 159//99
f 160//100 162//102 164//104
f 165//105 163//103 161//101
f 164//104 162//102 166//106
f 165//105 167//107 163//103
f 164//104 166//106 168//108
f 169//109 167//107 165//105
f 168//108 166//106 170//110
f 169//109 171//111 167//107
f 168//108 170//110 172//112
f 173//113 171//111 169//109
f 172//112 170//110 174//114
f 173//113 175//115 171//111
f 172//112 174//114 176//116
f 177//117 175//115 173//113
f 176//116 174//114 178//118
f 177//117 179//119 175//115
f 176//116 178//118 180//120
f 177//117 181//121 179//119
f 180//120 178//118 182//122
f 183//123 181//121 177//117
f 180//120 182//122 184//124
f 183//123 184//124 181//121
f 180//120 184//124 185//125
f 185//125 184//124 183//123
f 186//126 187//127 188//128
f 186//126 189//129 187//127
f 188//128 187//127 190//130
f 191//131 189//129 186//126
f 188//128 190//130 192//132
f 191//131 193//133 189//129
f 192//132 190//130 194//134
f 195//135 193//133 191//131
f 192//132 194//134 196//136
f 195//135 197//137 193//133
f 196//136 194//134 198//138
f 199//139 197//137 195//135
f 196//136 198//138 200//140
f 199//139 201//141 197//137
f 200//140 198//138 202//142
f 203//143 201//141 199//139
f 200//140 202//142 204//144
f 203//143 205//145 201//141
f 204//144 202//142 206//146
f 203//143 207//147 205//145
f 204//144 206//146 208//148
f 209//149 207//147 203//143
f 208//148 206//146 210//150
f 209//149 211//151 207//147
f 208//148 210//150 212//152
f 213//153 211//151 209//149
f 212//152 210//150 214//154
f 213//153 215//155 211//151
f 212//152 214//154 216//156
f 217//157 215//155 213//153
f 216//156 214//154 218//158
f 217//157 219//159 215//155
f 216//156 218//158 220//160
f 221//161 219//159 217//157
f 220//160 218//158 222//162
f 221//161 223//163 219//159
f 220//160 222//162 224//164
f 225//165 223//163 221//161
f 224//164 222//162 226//166
f 225//165 226//166 223//163
f 224//164 226//166 225//165
f 227//92 228//92 229//92
f 227//92 229//92 230//92
f 230//92 229//92 231//92
f 230//92 231//92 232//92
f 232//92 231//92 233//92
f 232//92 233//92 234//92
f 234//92 233//92 235//92
f 234//92 235//92 236//92
f 236//92 235//92 237//92
f 236//92 237//92 238//92
f 238//92 237//92 239//92
f 238//92 239//92 240//92
f 238//92 240//92 241//92
f 241//92 240//92 242//92
f 241//92 242//92 243//92
f 246//167 248//4 247//6
f 250//12 244//3 249//7
f 5//5 248//4 251//8
f 9//15 10//9 251//8
f 255//13 250//12 254//13
f 255//13 254//13 258//19
f 256//14 259//20 10//9
f 258//19 257//18 260//26
f 260//26 262//25 264//30
f 265//168 28//31 261//27
f 264//30 263//29 267//34
f 265//168 268//35 28//31
f 33//36 268//35 271//40
f 273//169 38//41 271//40
f 34//37 39//48 277//170
f 277//170 42//42 34//37
f 39//48 276//50 277//170
f 283//55 43//52 281//45
f 284//56 282//49 48//53
f 286//60 50//39 283//55
f 289//64 288//59 286//60
f 290//65 287//57 56//61
f 292//69 291//63 289//64
f 295//68 294//68 292//69
f 64//71 296//77 297//72
f 293//66 56//61 297//72
f 295//68 300//73 294//68
f 303//171 296//77 301//78
f 300//73 304//79 299//74
f 278//85 13//85 17//85
f 4//85 1//85 3//85
f 3//85 7//85 8//85
f 17//85 23//85 278//85
f 7//85 13//85 8//85
f 8//85 4//85 3//85
f 35//85 279//85 31//85
f 23//85 26//85 278//85
f 31//85 279//85 26//85
f 8//85 13//85 278//85
f 252//86 41//86 32//86
f 40//86 45//86 41//86
f 49//86 52//86 41//86
f 57//86 60//86 52//86
f 298//86 272//86 32//86
f 32//86 27//86 24//86
f 24//86 18//86 32//86
f 14//86 253//86 18//86
f 41//86 45//86 49//86
f 52//86 60//86 41//86
f 298//86 32//86 60//86
f 18//86 253//86 32//86
f 41//86 60//86 32//86
f 36//87 62//87 58//87
f 65//87 71//87 72//87
f 72//87 67//87 66//87
f 58//87 54//87 36//87
f 67//87 62//87 66//87
f 66//87 65//87 72//87
f 44//87 37//87 36//87
f 51//87 47//87 36//87
f 62//87 36//87 66//87
f 47//87 44//87 36//87
