# Blender v2.76 (sub 0) OBJ File: ''
# www.blender.org
v 0.000000 -0.037000 0.042000
v 0.037000 -0.037000 0.042000
v 0.000000 -0.034500 0.042000
v -0.037000 -0.037000 0.042000
v -0.005087 -0.034166 0.042000
v -0.012079 -0.032362 0.042000
v -0.018544 -0.029143 0.042000
v -0.024199 -0.024651 0.042000
v -0.028795 -0.019081 0.042000
v -0.032132 -0.012677 0.042000
v -0.033746 -0.007173 0.042000
v -0.034477 -0.002128 0.042000
v -0.037000 0.037000 0.042000
v -0.037000 0.000000 0.042000
v -0.034166 0.005087 0.042000
v -0.032362 0.012079 0.042000
v -0.029143 0.018544 0.042000
v -0.024651 0.024199 0.042000
v -0.019081 0.028795 0.042000
v -0.012677 0.032132 0.042000
v -0.005720 0.034066 0.042000
v 0.000000 0.034500 0.042000
v 0.037000 0.037000 0.042000
v 0.000000 0.037000 0.042000
v 0.005087 0.034166 0.042000
v 0.012079 0.032362 0.042000
v 0.018544 0.029143 0.042000
v 0.024199 0.024651 0.042000
v 0.028795 0.019081 0.042000
v 0.032132 0.012677 0.042000
v 0.034066 0.005720 0.042000
v 0.034500 0.000000 0.042000
v 0.034166 -0.005087 0.042000
v 0.037000 0.000000 0.042000
v 0.032362 -0.012079 0.042000
v 0.029143 -0.018544 0.042000
v 0.024651 -0.024199 0.042000
v 0.019081 -0.028795 0.042000
v 0.012677 -0.032132 0.042000
v 0.005720 -0.034066 0.042000
v 0.034500 0.000000 0.042000
v 0.034511 0.001488 0.060000
v 0.034166 -0.005087 0.042000
v 0.034066 -0.005720 0.060000
v 0.032362 -0.012079 0.042000
v 0.032132 -0.012677 0.060000
v 0.029143 -0.018544 0.042000
v 0.028795 -0.019081 0.060000
v 0.024651 -0.024199 0.042000
v 0.024198 -0.024651 0.060000
v 0.019081 -0.028795 0.042000
v 0.018544 -0.029144 0.060000
v 0.012677 -0.032132 0.042000
v 0.012079 -0.032362 0.060000
v 0.005720 -0.034066 0.042000
v 0.007173 -0.033746 0.060000
v 0.001488 -0.034511 0.060000
v 0.000000 -0.034500 0.042000
v -0.005087 -0.034166 0.042000
v -0.005720 -0.034066 0.060000
v -0.012079 -0.032362 0.042000
v -0.012678 -0.032133 0.060000
v -0.018544 -0.029143 0.042000
v -0.019081 -0.028794 0.060000
v -0.024199 -0.024651 0.042000
v -0.024651 -0.024198 0.060000
v -0.028795 -0.019081 0.042000
v -0.029143 -0.018544 0.060000
v -0.032132 -0.012677 0.042000
v -0.032362 -0.012079 0.060000
v -0.033746 -0.007173 0.042000
v -0.034166 -0.005087 0.060000
v -0.034477 -0.002128 0.042000
v -0.034477 0.002128 0.060000
v -0.034166 0.005087 0.042000
v -0.033746 0.007173 0.060000
v -0.032362 0.012079 0.042000
v -0.032132 0.012677 0.060000
v -0.029143 0.018544 0.042000
v -0.028795 0.019081 0.060000
v -0.024651 0.024199 0.042000
v -0.024198 0.024651 0.060000
v -0.019081 0.028795 0.042000
v -0.018544 0.029144 0.060000
v -0.012677 0.032132 0.042000
v -0.012079 0.032362 0.060000
v -0.005720 0.034066 0.042000
v -0.007173 0.033746 0.060000
v -0.001488 0.034511 0.060000
v 0.000000 0.034500 0.042000
v 0.005087 0.034166 0.042000
v 0.005720 0.034066 0.060000
v 0.012079 0.032362 0.042000
v 0.012678 0.032133 0.060000
v 0.018544 0.029143 0.042000
v 0.019081 0.028794 0.060000
v 0.024199 0.024651 0.042000
v 0.024651 0.024198 0.060000
v 0.028795 0.019081 0.042000
v 0.029143 0.018544 0.060000
v 0.032132 0.012677 0.042000
v 0.032362 0.012079 0.060000
v 0.034066 0.005720 0.042000
v 0.033746 0.007173 0.060000
v 0.005720 0.034066 0.060000
v -0.001488 0.034511 0.060000
v -0.007173 0.033746 0.060000
v 0.012678 0.032133 0.060000
v -0.012079 0.032362 0.060000
v 0.019081 0.028794 0.060000
v -0.018544 0.029144 0.060000
v 0.024651 0.024198 0.060000
v -0.024198 0.024651 0.060000
v 0.029143 0.018544 0.060000
v -0.028795 0.019081 0.060000
v 0.032362 0.012079 0.060000
v -0.032132 0.012677 0.060000
v 0.033746 0.007173 0.060000
v -0.033746 0.007173 0.060000
v 0.034511 0.001488 0.060000
v -0.034477 0.002128 0.060000
v 0.034066 -0.005720 0.060000
v -0.034166 -0.005087 0.060000
v 0.032132 -0.012677 0.060000
v -0.032362 -0.012079 0.060000
v 0.028795 -0.019081 0.060000
v -0.029143 -0.018544 0.060000
v 0.024198 -0.024651 0.060000
v -0.024651 -0.024198 0.060000
v 0.018544 -0.029144 0.060000
v -0.019081 -0.028794 0.060000
v 0.012079 -0.032362 0.060000
v -0.012678 -0.032133 0.060000
v 0.007173 -0.033746 0.060000
v -0.005720 -0.034066 0.060000
v 0.001488 -0.034511 0.060000
v 0.037000 0.037000 0.000000
v 0.037000 0.037000 0.021000
v 0.037000 0.000000 0.021000
v -0.037000 0.037000 0.000000
v -0.037000 0.037000 0.021000
v 0.000000 0.037000 0.021000
v -0.037000 0.037000 0.000000
v -0.037000 0.000000 0.000000
v -0.037000 0.000000 0.021000
v -0.037000 -0.037000 0.000000
v 0.000000 -0.037000 0.000000
v 0.000000 -0.037000 0.021000
v 0.037000 -0.037000 0.000000
v 0.037000 0.000000 0.000000
v 0.037000 -0.037000 0.021000
v 0.037000 0.037000 0.000000
v 0.000000 0.037000 0.000000
v 0.037000 0.037000 0.021000
v -0.037000 0.037000 0.042000
v -0.037000 0.037000 0.021000
v -0.037000 0.000000 0.042000
v -0.037000 -0.037000 0.042000
v -0.037000 -0.037000 0.021000
v 0.000000 -0.037000 0.042000
v 0.037000 -0.037000 0.042000
v -0.037000 -0.037000 0.042000
v 0.037000 0.037000 0.042000
v 0.037000 -0.037000 0.042000
v 0.037000 -0.037000 0.021000
v 0.037000 -0.037000 0.000000
v -0.037000 -0.037000 0.021000
v -0.037000 -0.037000 0.000000
v 0.000000 0.037000 0.042000
v -0.037000 0.037000 0.042000
v 0.037000 0.000000 0.042000
v 0.037000 0.037000 0.042000
v 0.037000 -0.037000 0.000000
v 0.018500 -0.018500 0.000000
v 0.037000 0.000000 0.000000
v 0.000000 -0.037000 0.000000
v -0.018500 -0.018500 0.000000
v -0.037000 -0.037000 0.000000
v -0.037000 0.000000 0.000000
v -0.018500 0.018500 0.000000
v 0.000000 0.000000 0.000000
v 0.018500 0.018500 0.000000
v 0.000000 0.037000 0.000000
v 0.037000 0.037000 0.000000
v -0.037000 0.037000 0.000000
vn 0.000000 0.000000 1.000000
vn -0.001200 0.000100 1.000000
vn 1.000000 0.001400 -0.000700
vn 0.999400 0.035000 0.004000
vn 0.987800 -0.155800 0.000600
vn 0.986200 -0.165700 0.002600
vn 0.936900 -0.349600 -0.002600
vn 0.930200 -0.367100 0.002600
vn 0.843800 -0.536700 -0.002600
vn 0.833600 -0.552400 0.002600
vn 0.713700 -0.700400 -0.002600
vn 0.700500 -0.713700 0.002600
vn 0.552400 -0.833600 -0.002600
vn 0.536700 -0.843700 0.002600
vn 0.367100 -0.930200 -0.002600
vn 0.357700 -0.933800 -0.000600
vn 0.173600 -0.984800 -0.004000
vn 0.206600 -0.978400 0.000700
vn 0.035000 -0.999400 0.004000
vn 0.001400 -1.000000 -0.000700
vn -0.155800 -0.987800 0.000600
vn -0.165600 -0.986200 0.002500
vn -0.349600 -0.936900 -0.002600
vn -0.367100 -0.930200 0.002500
vn -0.536700 -0.843700 -0.002600
vn -0.552500 -0.833500 0.002600
vn -0.700400 -0.713700 -0.002500
vn -0.713700 -0.700500 0.002600
vn -0.833600 -0.552400 -0.002500
vn -0.843700 -0.536700 0.002600
vn -0.927600 -0.373500 -0.002300
vn -0.936600 -0.350500 0.004000
vn -0.976800 -0.214100 -0.003400
vn -0.988900 -0.148400 0.007000
vn -0.998700 -0.051500 -0.006000
vn -0.998700 0.051500 0.006000
vn -0.988900 0.148400 -0.007000
vn -0.976800 0.214100 0.003400
vn -0.936600 0.350500 -0.004000
vn -0.927600 0.373500 0.002300
vn -0.843800 0.536700 -0.002600
vn -0.833600 0.552400 0.002600
vn -0.713700 0.700400 -0.002600
vn -0.700500 0.713700 0.002600
vn -0.552400 0.833600 -0.002600
vn -0.536700 0.843700 0.002600
vn -0.367100 0.930200 -0.002600
vn -0.357700 0.933800 -0.000600
vn -0.173600 0.984800 -0.004000
vn -0.206600 0.978400 0.000700
vn -0.035000 0.999400 0.004000
vn -0.001400 1.000000 -0.000700
vn 0.155800 0.987800 0.000600
vn 0.165600 0.986200 0.002500
vn 0.349600 0.936900 -0.002600
vn 0.367100 0.930200 0.002500
vn 0.536700 0.843700 -0.002600
vn 0.552500 0.833500 0.002600
vn 0.700400 0.713700 -0.002500
vn 0.713700 0.700500 0.002600
vn 0.833600 0.552400 -0.002500
vn 0.843700 0.536700 0.002600
vn 0.930200 0.367100 -0.002600
vn 0.933800 0.357800 -0.000600
vn 0.984800 0.173600 -0.004000
vn 0.978400 0.206600 0.000700
vn 1.000000 0.000000 0.000000
vn 0.000000 1.000000 0.000000
vn -1.000000 0.000000 0.000000
vn 0.000000 -1.000000 0.000000
vn 0.000000 0.000000 -1.000000
s 1
f 1//1 2//1 3//1
f 4//1 3//1 5//1
f 4//1 5//1 6//1
f 4//1 6//1 7//1
f 4//1 7//1 8//1
f 4//1 8//1 9//1
f 4//1 9//1 10//1
f 4//1 10//1 11//1
f 4//1 11//1 12//1
f 12//1 13//1 14//1
f 13//1 12//1 15//1
f 13//1 15//1 16//1
f 13//1 16//1 17//1
f 13//1 17//1 18//1
f 13//1 18//1 19//1
f 13//1 19//1 20//1
f 13//1 20//1 21//1
f 13//1 21//1 22//1
f 22//1 23//1 24//1
f 23//1 22//1 25//1
f 23//1 25//1 26//1
f 23//1 26//1 27//1
f 23//1 27//1 28//1
f 23//1 28//1 29//1
f 23//1 29//1 30//1
f 23//1 30//1 31//1
f 23//1 31//1 32//2
f 23//1 32//2 33//1
f 34//1 23//1 33//1
f 2//1 33//1 35//1
f 2//1 35//1 36//1
f 2//1 36//1 37//1
f 2//1 37//1 38//1
f 2//1 38//1 39//1
f 2//1 39//1 40//1
f 2//1 40//1 3//1
f 41//3 42//4 43//5
f 43//5 42//4 44//6
f 43//5 44//6 45//7
f 45//7 44//6 46//8
f 45//7 46//8 47//9
f 47//9 46//8 48//10
f 47//9 48//10 49//11
f 49//11 48//10 50//12
f 49//11 50//12 51//13
f 51//13 50//12 52//14
f 51//13 52//14 53//15
f 53//15 52//14 54//16
f 53//15 54//16 55//17
f 55//17 54//16 56//18
f 55//17 56//18 57//19
f 55//17 57//19 58//20
f 58//20 57//19 59//21
f 59//21 57//19 60//22
f 59//21 60//22 61//23
f 61//23 60//22 62//24
f 61//23 62//24 63//25
f 63//25 62//24 64//26
f 63//25 64//26 65//27
f 65//27 64//26 66//28
f 65//27 66//28 67//29
f 67//29 66//28 68//30
f 67//29 68//30 69//31
f 69//31 68//30 70//32
f 69//31 70//32 71//33
f 71//33 70//32 72//34
f 71//33 72//34 73//35
f 73//35 72//34 74//36
f 73//35 74//36 75//37
f 75//37 74//36 76//38
f 75//37 76//38 77//39
f 77//39 76//38 78//40
f 77//39 78//40 79//41
f 79//41 78//40 80//42
f 79//41 80//42 81//43
f 81//43 80//42 82//44
f 81//43 82//44 83//45
f 83//45 82//44 84//46
f 83//45 84//46 85//47
f 85//47 84//46 86//48
f 85//47 86//48 87//49
f 87//49 86//48 88//50
f 87//49 88//50 89//51
f 87//49 89//51 90//52
f 90//52 89//51 91//53
f 91//53 89//51 92//54
f 91//53 92//54 93//55
f 93//55 92//54 94//56
f 93//55 94//56 95//57
f 95//57 94//56 96//58
f 95//57 96//58 97//59
f 97//59 96//58 98//60
f 97//59 98//60 99//61
f 99//61 98//60 100//62
f 99//61 100//62 101//63
f 101//63 100//62 102//64
f 101//63 102//64 103//65
f 103//65 102//64 104//66
f 103//65 104//66 42//4
f 103//65 42//4 41//3
f 105//1 106//1 107//1
f 105//1 107//1 108//1
f 108//1 107//1 109//1
f 108//1 109//1 110//1
f 110//1 109//1 111//1
f 110//1 111//1 112//1
f 112//1 111//1 113//1
f 112//1 113//1 114//1
f 114//1 113//1 115//1
f 114//1 115//1 116//1
f 116//1 115//1 117//1
f 116//1 117//1 118//1
f 118//1 117//1 119//1
f 118//1 119//1 120//1
f 120//1 119//1 121//1
f 120//1 121//1 122//1
f 122//1 121//1 123//1
f 122//1 123//1 124//1
f 124//1 123//1 125//1
f 124//1 125//1 126//1
f 126//1 125//1 127//1
f 126//1 127//1 128//1
f 128//1 127//1 129//1
f 128//1 129//1 130//1
f 130//1 129//1 131//1
f 130//1 131//1 132//1
f 132//1 131//1 133//1
f 132//1 133//1 134//1
f 134//1 133//1 135//1
f 134//1 135//1 136//1
f 137//67 138//67 139//67
f 140//68 141//68 142//68
f 143//69 144//69 145//69
f 146//70 147//70 148//70
f 149//67 150//67 151//67
f 152//68 153//68 154//68
f 155//69 156//69 157//69
f 158//70 159//70 160//70
f 160//70 148//70 161//70
f 160//70 159//70 148//70
f 159//70 146//70 148//70
f 157//69 145//69 162//69
f 157//69 156//69 145//69
f 156//69 143//69 145//69
f 154//68 142//68 163//68
f 154//68 153//68 142//68
f 153//68 140//68 142//68
f 151//67 139//67 164//67
f 151//67 150//67 139//67
f 150//67 137//67 139//67
f 148//70 165//70 161//70
f 148//70 147//70 165//70
f 147//70 166//70 165//70
f 145//69 167//69 162//69
f 145//69 144//69 167//69
f 144//69 168//69 167//69
f 142//68 169//68 163//68
f 142//68 141//68 169//68
f 141//68 170//68 169//68
f 139//67 171//67 164//67
f 139//67 138//67 171//67
f 138//67 172//67 171//67
f 4//1 1//1 3//1
f 4//1 12//1 14//1
f 13//1 22//1 24//1
f 2//1 34//1 33//1
f 173//71 174//71 175//71
f 176//71 174//71 173//71
f 176//71 177//71 174//71
f 176//71 178//71 177//71
f 179//71 177//71 178//71
f 179//71 180//71 181//71
f 181//71 182//71 175//71
f 181//71 180//71 182//71
f 180//71 183//71 182//71
f 174//71 181//71 175//71
f 174//71 177//71 181//71
f 177//71 179//71 181//71
f 175//71 182//71 184//71
f 183//71 184//71 182//71
f 183//71 180//71 185//71
f 179//71 185//71 180//71
