# Blender v2.80 (sub 75) OBJ File: 'GIRONA500.blend'
# www.blender.org
o Antenna_hydro_mesh.003
v -0.023580 0.010462 -0.298681
v -0.046446 0.002076 -0.394354
v -0.023754 -0.010256 -0.289529
v -0.046446 -0.001924 -0.394354
v -0.046446 -0.001923 -0.141790
v 0.011652 -0.012009 -0.376294
v -0.012944 -0.012717 -0.376291
v -0.016274 0.012804 -0.147916
v 0.011700 -0.011388 -0.151366
v 0.007253 -0.012796 -0.150881
v 0.016039 -0.007613 -0.151917
v 0.018219 -0.002705 -0.152217
v 0.015924 0.007907 -0.151899
v 0.011074 0.011807 -0.232300
v 0.008660 0.012820 -0.150990
v 0.006653 0.017719 -0.376294
v 0.011652 0.012162 -0.376294
v 0.013895 0.012995 -0.376294
v -0.008869 0.013078 -0.298232
v -0.019350 -0.004399 -0.422317
v -0.014962 -0.012424 -0.421579
v -0.018252 0.007311 -0.422205
v 0.002847 0.014093 -0.427307
v 0.002074 -0.018983 -0.422201
v 0.013577 0.000630 -0.427299
v -0.010337 -0.010583 -0.427315
v 0.010047 -0.009783 -0.427307
v 0.018263 0.003505 -0.376294
v 0.017507 -0.006187 -0.376294
v 0.009365 -0.016269 -0.376294
v -0.020019 0.011605 -0.420790
v 0.018370 0.002999 -0.152235
v -0.019128 -0.005241 -0.420797
v -0.014402 0.012819 -0.376294
v 0.001669 -0.013956 -0.427300
v 0.012896 -0.014056 -0.422312
v -0.014472 0.000631 -0.427295
v -0.010336 0.010481 -0.427314
v 0.017414 0.006975 -0.422278
v 0.010648 0.008924 -0.427300
v 0.010697 0.015561 -0.422277
v -0.046408 0.002092 -0.141959
v -0.001719 -0.018977 -0.376294
v -0.016721 -0.012600 -0.147916
v 0.002167 0.018921 -0.422256
v -0.008893 -0.016999 -0.422331
v -0.002469 0.019052 -0.376294
v -0.010201 0.016370 -0.376294
v -0.010229 -0.016209 -0.376294
v -0.006637 0.018273 -0.422366
v -0.014614 0.012932 -0.421586
v -0.018812 0.005966 -0.420795
v 0.018481 -0.003558 -0.422304
v -0.020017 -0.011453 -0.420790
v 0.011700 -0.011388 -0.151366
v 0.016039 -0.007613 -0.151917
v 0.018219 -0.002705 -0.152217
v 0.018370 0.002999 -0.152235
v 0.015924 0.007907 -0.151899
v 0.009365 -0.016269 -0.376294
v 0.017507 -0.006187 -0.376294
v -0.018812 0.005966 -0.420795
v -0.018812 0.005966 -0.420795
v -0.018252 0.007311 -0.422205
v -0.046446 0.002076 -0.394354
v -0.046446 0.002076 -0.394354
v -0.020019 0.011605 -0.420790
v -0.020019 0.011605 -0.420790
v 0.013895 0.012995 -0.376294
v 0.006653 0.017719 -0.376294
v 0.018263 0.003505 -0.376294
v 0.011652 0.012162 -0.376294
v 0.007253 -0.012796 -0.150881
v -0.014402 0.012819 -0.376294
v -0.014402 0.012819 -0.376294
v -0.014614 0.012932 -0.421586
v -0.014614 0.012932 -0.421586
v -0.014614 0.012932 -0.421586
v -0.014614 0.012932 -0.421586
v -0.019128 -0.005241 -0.420797
v -0.019128 -0.005241 -0.420797
v -0.014962 -0.012424 -0.421579
v -0.014962 -0.012424 -0.421579
v -0.014962 -0.012424 -0.421579
v -0.014962 -0.012424 -0.421579
v -0.019350 -0.004399 -0.422317
v -0.010336 0.010481 -0.427314
v 0.002847 0.014093 -0.427307
v -0.014472 0.000631 -0.427295
v 0.018481 -0.003558 -0.422304
v 0.017414 0.006975 -0.422278
v 0.002167 0.018921 -0.422256
v 0.010697 0.015561 -0.422277
v -0.016721 -0.012600 -0.147916
v -0.002469 0.019052 -0.376294
v -0.020017 -0.011453 -0.420790
v -0.020017 -0.011453 -0.420790
v -0.008893 -0.016999 -0.422331
v 0.002074 -0.018983 -0.422201
v 0.013577 0.000630 -0.427299
v 0.010047 -0.009783 -0.427307
v 0.012896 -0.014056 -0.422312
v -0.046446 -0.001923 -0.141790
v -0.046446 -0.001923 -0.141790
v -0.012944 -0.012717 -0.376291
v -0.012944 -0.012717 -0.376291
v -0.010201 0.016370 -0.376294
v -0.046408 0.002092 -0.141959
v -0.046408 0.002092 -0.141959
v 0.011652 -0.012009 -0.376294
v -0.006637 0.018273 -0.422366
v 0.008660 0.012820 -0.150990
v -0.010229 -0.016209 -0.376294
v -0.001719 -0.018977 -0.376294
v -0.010337 -0.010583 -0.427315
v 0.001669 -0.013956 -0.427300
v 0.010648 0.008924 -0.427300
v -0.016274 0.012804 -0.147916
v -0.046446 -0.001924 -0.394354
v -0.046446 -0.001924 -0.394354
vn -0.3406 0.9402 -0.0009
vn -0.2681 0.9634 0.0017
vn -0.2694 0.9630 0.0020
vn -0.1869 0.9824 0.0006
vn -0.3350 0.9422 0.0000
vn -0.9999 0.0095 0.0001
vn -1.0000 0.0001 0.0000
vn -1.0000 0.0000 0.0000
vn -0.9999 0.0096 0.0001
vn -0.7072 -0.0000 -0.7070
vn -0.3017 -0.9534 -0.0007
vn -0.3406 -0.9402 -0.0009
vn -0.2365 -0.9716 0.0012
vn -0.1921 -0.9814 0.0001
vn -0.3380 -0.9411 0.0000
vn 0.7447 0.6673 0.0036
vn 0.9734 0.2289 0.0058
vn 0.4550 0.8905 -0.0045
vn 0.9754 0.2203 0.0000
vn 0.9749 -0.2226 0.0014
vn 0.5427 0.8399 0.0043
vn 0.2706 0.9626 0.0038
vn 0.9195 -0.3929 0.0102
vn 0.7978 -0.6030 0.0027
vn 0.3956 -0.9184 -0.0014
vn 0.4782 -0.8782 0.0023
vn 0.1369 -0.9906 0.0013
vn -0.1223 -0.9925 0.0011
vn 0.0001 -0.0002 1.0000
vn -0.0001 -0.0005 1.0000
vn -0.0003 -0.0010 1.0000
vn -0.0001 0.0001 1.0000
vn -0.0000 0.0001 1.0000
vn -0.0002 0.0001 1.0000
vn -0.1882 -0.9821 0.0020
vn -0.1389 0.0188 -0.9901
vn -0.0337 0.0037 -0.9994
vn -0.1503 0.0204 -0.9884
vn -0.0305 -0.0057 -0.9995
vn -0.1230 -0.0255 -0.9921
vn -0.1386 -0.0289 -0.9899
vn -0.1474 0.9891 0.0003
vn -0.2379 0.9713 0.0035
vn -0.0678 0.9977 -0.0008
vn 0.0005 -0.0001 -1.0000
vn 0.0000 -0.0005 -1.0000
vn -0.0001 0.0003 -1.0000
vn 0.0003 -0.0013 -1.0000
vn 0.0011 -0.0024 -1.0000
vn -0.0002 0.0002 -1.0000
vn 0.0019 0.0025 -1.0000
vn -0.0003 0.0004 -1.0000
vn -0.7387 0.2344 -0.6320
vn -0.4627 0.5036 -0.7295
vn -0.6652 0.0303 -0.7460
vn -0.9097 -0.0952 -0.4041
vn -0.4689 -0.5057 -0.7241
vn -0.5952 -0.4897 -0.6371
vn -0.2884 -0.6461 -0.7066
vn 0.0835 -0.6851 -0.7236
vn 0.4775 -0.5229 -0.7060
vn 0.0857 -0.7061 -0.7028
vn 0.6733 0.0181 -0.7391
vn 0.6779 -0.1399 -0.7217
vn 0.5058 -0.4582 -0.7309
vn 0.5480 0.4324 -0.7160
vn 0.6655 0.2591 -0.6999
vn 0.4284 0.5835 -0.6899
vn 0.1364 0.6671 -0.7324
vn 0.0965 0.7260 -0.6809
vn -0.5508 0.5353 -0.6404
vn -0.2255 0.6365 -0.7375
vn -0.5683 -0.8226 0.0184
vn -0.3979 -0.9174 -0.0082
vn -0.0414 -0.9991 0.0120
vn -0.9605 0.0886 -0.2637
vn -0.8361 0.5227 0.1664
vn -0.4974 0.8675 0.0083
vn -0.5636 0.8260 -0.0078
vn -0.6456 0.7637 0.0049
vn -0.3207 0.9471 -0.0084
vn -0.9868 0.0278 0.1596
vn -0.6146 -0.7888 -0.0017
vn -0.7890 -0.6135 0.0312
vn -0.8628 -0.4849 -0.1426
vn 0.6866 -0.7270 -0.0069
vn 0.5330 -0.8458 0.0229
vn 0.1245 -0.9921 -0.0112
vn 0.9810 -0.1938 -0.0080
vn 0.9289 0.3701 -0.0138
vn 0.7557 0.6548 0.0096
vn 0.5959 0.8029 -0.0149
vn 0.3546 0.9350 0.0091
vn 0.1493 0.9887 -0.0096
vn -0.0936 0.9955 0.0116
vn -0.0001 0.0000 1.0000
vn -0.0000 0.0000 1.0000
vn 0.0000 -0.0001 1.0000
vn 0.1247 0.0023 0.9922
vn 0.1374 -0.0005 0.9905
vn 0.1323 -0.0012 0.9912
vn 0.1220 -0.0015 0.9925
vn 0.1541 -0.0028 0.9880
vn 0.1167 -0.0021 0.9932
vn 0.1150 -0.0008 0.9933
vn 0.2070 0.0218 0.9781
vn 0.1558 -0.0010 0.9878
vn 0.1265 -0.0003 0.9919
vn 0.2152 0.0392 0.9758
s 1
f 65//1 1//2 67//3
f 118//4 65//1 108//5
f 65//1 118//4 1//2
f 104//6 66//7 4//8
f 66//7 104//6 109//9
f 54//10 2//10 31//10
f 2//10 54//10 120//10
f 3//11 119//12 97//13
f 94//14 119//12 3//11
f 103//15 119//12 94//14
f 59//16 71//17 72//18
f 59//16 58//19 71//17
f 58//19 57//20 71//17
f 14//21 112//22 59//16
f 72//18 112//22 14//21
f 72//18 14//21 59//16
f 71//17 57//20 29//23
f 29//23 56//24 6//25
f 56//24 29//23 57//20
f 55//26 6//25 56//24
f 73//27 6//25 55//26
f 105//28 6//25 73//27
f 105//28 73//27 94//14
f 114//29 106//30 49//31
f 106//30 114//29 110//32
f 110//32 114//29 60//33
f 61//34 110//32 60//33
f 105//28 97//13 83//35
f 97//13 105//28 3//11
f 105//28 94//14 3//11
f 96//36 80//37 82//38
f 63//39 68//40 77//41
f 80//37 68//40 63//39
f 80//37 96//36 68//40
f 67//3 74//42 76//43
f 74//42 67//3 1//2
f 19//44 74//42 1//2
f 118//4 19//44 1//2
f 89//45 117//46 25//47
f 88//48 89//45 87//49
f 117//46 89//45 88//48
f 89//45 35//50 26//51
f 35//50 89//45 27//52
f 27//52 89//45 25//47
f 64//53 38//54 37//55
f 86//56 37//55 115//57
f 86//56 115//57 84//58
f 84//58 115//57 98//59
f 116//60 98//59 115//57
f 116//60 102//61 24//62
f 100//63 90//64 101//65
f 102//61 101//65 90//64
f 40//66 91//67 100//63
f 90//64 100//63 91//67
f 40//66 93//68 91//67
f 23//69 92//70 93//68
f 93//68 40//66 23//69
f 102//61 116//60 101//65
f 98//59 116//60 24//62
f 78//71 38//54 64//53
f 37//55 86//56 64//53
f 50//72 38//54 78//71
f 92//70 23//69 50//72
f 38//54 50//72 23//69
f 113//73 46//74 43//75
f 86//56 62//76 64//53
f 51//77 22//77 52//77
f 107//78 79//79 75//80
f 79//79 107//78 111//81
f 62//76 86//56 81//82
f 113//73 85//83 46//74
f 85//83 113//73 7//84
f 21//85 33//85 20//85
f 36//86 30//87 99//88
f 43//75 99//88 30//87
f 30//87 36//86 29//23
f 53//89 71//17 29//23
f 53//89 29//23 36//86
f 71//17 39//90 69//91
f 71//17 53//89 39//90
f 69//91 41//92 70//93
f 41//92 69//91 39//90
f 70//93 45//94 95//95
f 45//94 70//93 41//92
f 95//95 111//81 107//78
f 111//81 95//95 45//94
f 99//88 43//75 46//74
f 28//96 18//97 17//97
f 47//98 17//97 16//97
f 34//98 47//98 48//97
f 47//98 34//98 17//97
f 17//97 18//97 16//97
f 112//22 19//44 118//4
f 72//18 19//44 112//22
f 19//44 72//18 74//42
f 11//99 12//100 32//101
f 15//102 8//103 10//104
f 9//105 15//102 10//104
f 8//103 42//106 44//107
f 15//102 9//105 13//108
f 42//106 5//109 44//107
f 9//105 11//99 32//101
f 44//107 10//104 8//103
f 32//101 13//108 9//105
